<svg 
 xmlns="http://www.w3.org/2000/svg"
 xmlns:xlink="http://www.w3.org/1999/xlink"
 width="18px" height="20px">
<path fill-rule="evenodd"  fill="rgb(238, 238, 238)"
 d="M17.824,0.587 C17.824,-0.013 17.269,0.137 17.098,0.314 C16.768,0.682 15.897,1.432 14.038,1.828 C13.747,1.896 13.470,1.923 13.180,1.923 C12.283,1.923 11.531,1.623 10.674,1.269 C9.684,0.873 8.563,0.423 7.033,0.423 C6.901,0.423 6.769,0.423 6.637,0.437 C4.975,0.519 3.537,1.269 2.495,1.828 C2.189,1.986 1.881,2.141 1.571,2.291 L1.479,2.060 L1.465,2.046 C1.320,1.691 0.924,1.528 0.582,1.678 C0.423,1.746 0.291,1.882 0.225,2.060 C0.159,2.223 0.159,2.428 0.225,2.591 L7.098,19.419 C7.204,19.678 7.441,19.842 7.718,19.842 C7.811,19.842 7.903,19.828 7.982,19.787 C8.325,19.637 8.483,19.228 8.338,18.874 L5.990,13.119 C6.293,12.601 6.966,11.728 8.259,11.360 C8.668,11.251 9.090,11.183 9.552,11.183 C10.436,11.183 11.293,11.387 12.204,11.606 C13.035,11.796 13.879,12.001 14.710,12.001 C15.963,12.001 16.926,11.551 17.757,10.597 C17.784,10.556 17.810,10.460 17.823,10.379 L17.823,0.587 L17.824,0.587 Z"/>
</svg>