<svg 
 xmlns="http://www.w3.org/2000/svg"
 xmlns:xlink="http://www.w3.org/1999/xlink"
 width="19px" height="18px">
<path fill-rule="evenodd"  fill="rgb(238, 238, 238)"
 d="M6.319,13.456 L6.319,8.351 C6.319,7.722 5.790,7.213 5.139,7.213 L3.641,7.213 C2.992,7.213 2.463,7.722 2.463,8.351 L2.463,15.477 L6.319,15.477 L6.319,13.456 ZM11.426,6.357 L11.426,1.252 C11.426,0.623 10.896,0.111 10.248,0.111 L8.749,0.111 C8.098,0.111 7.572,0.623 7.572,1.252 L7.572,15.474 L11.426,15.474 L11.426,6.357 ZM16.388,9.918 L16.388,4.813 C16.388,4.183 15.858,3.674 15.210,3.674 L13.712,3.674 C13.063,3.674 12.531,4.183 12.531,4.813 L12.531,15.474 L16.388,15.474 L16.388,9.918 ZM0.105,16.399 L18.895,16.399 L18.895,17.889 L0.105,17.889 L0.105,16.399 Z"/>
</svg>