<svg 
 xmlns="http://www.w3.org/2000/svg"
 xmlns:xlink="http://www.w3.org/1999/xlink"
 width="19px" height="19px">
<path fill-rule="evenodd"  fill="rgb(238, 238, 238)"
 d="M17.914,4.840 L16.906,5.784 C15.898,6.795 14.218,6.795 13.210,5.784 C12.202,4.773 12.202,3.088 13.210,2.077 L14.151,1.133 C14.688,0.594 14.352,-0.013 13.344,0.122 C12.336,0.257 11.463,0.729 10.656,1.470 C9.446,2.683 9.043,4.368 9.379,5.919 L1.315,14.007 C0.306,15.019 0.306,16.704 1.315,17.782 C2.323,18.793 4.003,18.793 5.011,17.782 L13.075,9.694 C14.621,10.031 16.301,9.559 17.511,8.413 C18.250,7.671 18.721,6.728 18.855,5.717 C19.057,4.638 18.452,4.301 17.914,4.840 L17.914,4.840 ZM3.801,16.501 C3.465,16.839 2.928,16.839 2.591,16.501 C2.256,16.164 2.255,15.625 2.591,15.221 C2.928,14.884 3.465,14.884 3.801,15.221 C4.204,15.558 4.204,16.164 3.801,16.501 ZM2.928,4.975 L5.952,8.008 L7.161,6.728 L4.204,3.762 L3.532,2.481 L1.315,0.863 L0.105,2.144 L1.651,4.301 L2.928,4.975 ZM13.143,11.514 C12.941,11.311 12.672,11.311 12.538,11.514 L10.656,13.401 C10.455,13.603 10.455,13.873 10.656,14.007 L15.024,18.389 C15.696,19.063 16.839,19.063 17.511,18.389 C18.183,17.715 18.183,16.569 17.511,15.895 L13.143,11.514 Z"/>
</svg>