<svg 
 xmlns="http://www.w3.org/2000/svg"
 xmlns:xlink="http://www.w3.org/1999/xlink"
 width="17px" height="20px">
<path fill-rule="evenodd"  fill="rgb(238, 238, 238)"
 d="M11.255,16.800 C12.986,17.437 14.087,18.640 14.087,20.000 L2.676,20.000 C2.676,18.640 3.857,17.437 5.667,16.800 C2.362,15.600 -0.000,12.400 -0.000,8.639 C-0.000,3.840 3.778,-0.000 8.500,-0.000 C13.222,-0.000 17.000,3.839 17.000,8.640 C17.000,12.401 14.641,15.600 11.255,16.799 L11.255,16.800 ZM8.657,6.000 C6.216,6.000 4.171,8.080 4.171,10.559 C4.171,13.040 6.217,15.121 8.658,15.121 C11.176,15.121 13.146,13.040 13.146,10.559 C13.146,8.080 11.176,6.001 8.658,6.001 L8.657,6.000 ZM8.657,13.040 C7.476,13.040 6.455,12.080 6.455,10.800 C6.455,9.600 7.475,8.562 8.658,8.562 C9.837,8.562 10.859,9.522 10.859,10.800 C10.859,12.000 9.918,13.040 8.658,13.040 L8.657,13.040 Z"/>
</svg>