<?xml version="1.0" standalone="no"?><!DOCTYPE svg PUBLIC "-//W3C//DTD SVG 1.1//EN" "http://www.w3.org/Graphics/SVG/1.1/DTD/svg11.dtd"><svg t="1715109218670" class="icon" viewBox="0 0 1024 1024" version="1.1" xmlns="http://www.w3.org/2000/svg" p-id="1951" xmlns:xlink="http://www.w3.org/1999/xlink" width="64" height="64"><path d="M0 138.712V390.56h62v44.73c0 120.2 46.808 233.204 131.802 318.198 84.994 84.992 197.998 131.8 318.198 131.8 120.2 0 233.204-46.808 318.198-131.802C915.192 668.494 962 555.49 962 435.29V390.56h62V138.712H0z m902 296.578c0 215.046-174.954 390-390 390s-390-174.954-390-390V390.56h780v44.73z m62-104.732H60V198.712h904v131.846z" p-id="1952" fill="#ffffff"></path><path d="M512 424.71c-99.61 0-180.65 81.04-180.65 180.65 0 99.612 81.038 180.65 180.65 180.65 99.612 0 180.65-81.04 180.65-180.65 0-99.614-81.04-180.65-180.65-180.65z m0 301.3c-66.528 0-120.65-54.124-120.65-120.65s54.122-120.65 120.65-120.65 120.65 54.122 120.65 120.65c0 66.526-54.124 120.65-120.65 120.65z" p-id="1953" fill="#ffffff"></path><path d="M512 520.708c-46.676 0-84.65 37.974-84.65 84.65 0 46.678 37.974 84.65 84.65 84.65s84.65-37.974 84.65-84.65-37.974-84.65-84.65-84.65z m0 109.302c-13.592 0-24.65-11.058-24.65-24.65s11.058-24.65 24.65-24.65 24.65 11.058 24.65 24.65-11.058 24.65-24.65 24.65zM753 234.64h60v60h-60zM860 234.64h60v60h-60z" p-id="1954" fill="#ffffff"></path></svg>