<?xml version="1.0" standalone="no"?><!DOCTYPE svg PUBLIC "-//W3C//DTD SVG 1.1//EN" "http://www.w3.org/Graphics/SVG/1.1/DTD/svg11.dtd"><svg t="1715109225539" class="icon" viewBox="0 0 1024 1024" version="1.1" xmlns="http://www.w3.org/2000/svg" p-id="2146" xmlns:xlink="http://www.w3.org/1999/xlink" width="64" height="64"><path d="M1024 429.41L394.28 114.64l-114.398 228.86-55.03 110.088 191.392 95.668-62.696 106.806a92.62 92.62 0 0 0-14.992-1.236c-40.45 0-74.888 26.14-87.372 62.404H183.58v-132.144H0V909.36h183.58v-132.148h67.604c12.484 36.268 46.922 62.41 87.374 62.41 50.946 0 92.396-41.45 92.396-92.398 0-24.168-9.338-46.186-24.582-62.67l63.642-108.42 317.196 158.552 34.51-69.038 104.806 52.388 91.126-182.306-93.704-46.838L1024 429.41zM123.602 849.386H59.978V645.07h63.624v204.316z m214.958-69.74c-17.876 0-32.418-14.544-32.418-32.42s14.542-32.418 32.418-32.418c17.876 0 32.418 14.542 32.418 32.418 0 17.878-14.542 32.42-32.418 32.42z m421.82-125.422L305.32 426.758l28.212-56.442 429.096 214.488 46.172-27.452-48.42 96.872z m-0.242-137.716l-399.79-199.84 60.766-121.562 477.858 238.86-138.834 82.542z m177.05 46.058l-37.492 75.008-51.158-25.57 37.494-75.01 51.156 25.572z" p-id="2147" fill="#ffffff"></path></svg>