<svg xmlns="http://www.w3.org/2000/svg" width="20" height="20" viewBox="0 0 20 20"><defs><style>.a{fill:#ff4d4f;}.b{fill:#fff;stroke:#707070;opacity:0;}.c{stroke:none;}.d{fill:none;}</style></defs><g transform="translate(-324 -435)"><path class="a" d="M19.651,91.8,11.8,78.1c-.96-1.675-2.528-1.675-3.488,0L.47,91.8C-.49,93.479.3,94.847,2.213,94.847H17.908C19.825,94.847,20.609,93.479,19.651,91.8ZM8.982,81.99a1.5,1.5,0,0,1,2.156-.006,1.614,1.614,0,0,1,.421,1.139c0,.393-.585,3.28-.781,5.381H9.368c-.171-2.1-.806-4.988-.806-5.381A1.615,1.615,0,0,1,8.982,81.99Zm2.136,9.988a1.5,1.5,0,0,1-2.116,0,1.424,1.424,0,0,1-.443-1.056A1.46,1.46,0,0,1,9,89.858a1.475,1.475,0,0,1,2.116,0,1.461,1.461,0,0,1,.443,1.065A1.425,1.425,0,0,1,11.118,91.978Z" transform="translate(323.94 359.154)"/><g class="b" transform="translate(324 435)"><rect class="c" width="20" height="20"/><rect class="d" x="0.5" y="0.5" width="19" height="19"/></g></g></svg>