<svg width="20" height="20" viewBox="0 0 20 20" fill="none" xmlns="http://www.w3.org/2000/svg">
<g id="Group 2134625728">
<path id="Vector" d="M4.86321 13.4624H2.29627C1.59036 13.4624 1.0128 14.1727 1.0128 15.0408V17.4083C1.0128 18.2765 1.59036 18.9867 2.29627 18.9867H4.86321C5.56912 18.9867 6.14668 18.2765 6.14668 17.4083V15.0408C6.14668 14.1727 5.56912 13.4624 4.86321 13.4624ZM11.2814 12.0777H8.71442C8.00851 12.0777 7.43094 12.7007 7.43094 13.4622V17.6155C7.43094 18.377 8.00851 19 8.71442 19H11.2814C11.9873 19 12.5648 18.377 12.5648 17.6155V13.4622C12.5648 12.7007 11.9873 12.0777 11.2814 12.0777ZM17.7165 9.30285H15.1496C14.4437 9.30285 13.8661 9.94498 13.8661 10.7298V17.573C13.8661 18.3578 14.4437 19 15.1496 19H17.7165C18.4224 19 19 18.3578 19 17.573V10.7298C19 9.94498 18.4224 9.30285 17.7165 9.30285ZM18.9354 5.15143V1H15.0716L16.3724 2.39757L12.0435 7.06702L8.63072 3.38573C8.60587 3.35079 8.57895 3.31762 8.55015 3.28641L8.53885 3.27422C8.16759 2.87376 7.56008 2.87376 7.18882 3.27422L1.27844 9.64962C0.907186 10.0501 0.907186 10.7054 1.27844 11.1059L1.28974 11.1181C1.661 11.5185 2.26851 11.5185 2.63977 11.1181L7.8581 5.48916L11.2865 9.18732C11.2995 9.2013 11.313 9.21486 11.3267 9.22798C11.3327 9.23479 11.3385 9.2417 11.3447 9.2484L11.3826 9.28923C11.7465 9.68181 12.3421 9.68181 12.706 9.28923L17.7364 3.86312L18.9354 5.15143Z" fill="url(#paint0_linear_18_312)"/>
</g>
<defs>
<linearGradient id="paint0_linear_18_312" x1="19.0001" y1="19.0034" x2="19.0001" y2="1.0032" gradientUnits="userSpaceOnUse">
<stop stop-color="#44B6FF"/>
<stop offset="1" stop-color="white"/>
</linearGradient>
</defs>
</svg>
