<svg 
 xmlns="http://www.w3.org/2000/svg"
 xmlns:xlink="http://www.w3.org/1999/xlink"
 width="14px" height="15px">
<path fill-rule="evenodd" 
 d="M8.712,4.179 L8.993,4.464 L8.993,1.591 C8.993,0.714 8.273,0.000 7.395,0.000 L6.604,0.000 C5.726,0.000 5.006,0.714 5.006,1.591 L5.006,4.464 L5.287,4.179 L0.808,4.179 C0.364,4.179 -0.000,4.540 -0.000,4.987 L-0.000,7.598 C-0.000,8.045 0.364,8.406 0.808,8.406 L1.071,8.406 L1.071,8.121 L0.791,8.121 L0.791,11.152 C0.791,11.637 0.743,13.060 0.663,13.523 C0.615,13.799 0.568,14.004 0.537,14.116 L0.527,14.192 C0.527,14.638 0.891,15.000 1.334,15.000 L12.665,15.000 C13.108,15.000 13.472,14.638 13.472,14.192 L13.462,14.118 C13.413,13.914 13.371,13.709 13.336,13.502 C13.253,13.018 13.211,11.591 13.209,11.100 L13.209,8.121 L12.928,8.121 L12.928,8.406 L13.192,8.406 C13.635,8.406 14.000,8.045 14.000,7.598 L14.000,4.987 C14.000,4.540 13.635,4.179 13.192,4.179 L8.712,4.179 L8.712,4.179 ZM12.759,7.146 L1.240,7.146 C1.249,7.146 1.257,7.154 1.257,7.170 L1.257,5.415 C1.257,5.431 1.249,5.439 1.240,5.439 L6.264,5.439 L6.264,1.722 C6.264,1.425 6.487,1.260 6.905,1.260 L7.094,1.260 C7.512,1.260 7.735,1.425 7.735,1.722 L7.735,5.439 L12.759,5.439 C12.751,5.439 12.742,5.431 12.742,5.415 L12.742,7.170 C12.742,7.154 12.751,7.146 12.759,7.146 ZM9.701,10.317 C9.439,10.319 9.226,10.532 9.222,10.798 L9.222,14.024 L9.503,13.739 L7.395,13.739 L7.676,14.024 L7.676,10.798 C7.672,10.532 7.459,10.318 7.197,10.317 L7.065,10.317 C6.803,10.319 6.591,10.533 6.587,10.798 L6.587,14.024 L6.868,13.739 L4.628,13.739 L4.909,14.024 L4.909,10.798 C4.905,10.532 4.692,10.319 4.430,10.317 L4.298,10.317 C4.037,10.319 3.824,10.533 3.821,10.798 L3.821,14.024 L4.101,13.739 L1.504,13.739 L1.769,14.118 C1.806,14.010 1.858,13.816 1.910,13.548 C1.996,13.108 2.047,11.680 2.047,11.152 L2.047,8.121 L1.767,8.406 L12.232,8.406 L11.952,8.121 L11.952,11.152 C11.952,11.680 12.003,13.108 12.089,13.548 C12.141,13.816 12.193,14.009 12.231,14.118 L12.496,13.739 L10.030,13.739 L10.310,14.024 L10.310,10.798 C10.307,10.533 10.094,10.319 9.832,10.317 L9.701,10.317 Z"/>
</svg>
