<svg xmlns="http://www.w3.org/2000/svg" width="20" height="20" viewBox="0 0 20 20"><defs><style>.a,.b{fill:#fff;}.a{stroke:#707070;opacity:0;}.c{stroke:none;}.d{fill:none;}</style></defs><g transform="translate(-1695 -280)"><g class="a" transform="translate(1695 280)"><rect class="c" width="20" height="20"/><rect class="d" x="0.5" y="0.5" width="19" height="19"/></g><g transform="translate(1632 217)"><path class="b" d="M73,82a9,9,0,1,1,9-9A9.01,9.01,0,0,1,73,82Zm0-16.709A7.709,7.709,0,1,0,80.709,73,7.717,7.717,0,0,0,73,65.291Z"/><path class="b" d="M324.261,325.6l2.78-2.75a.643.643,0,0,0-.9-.914l-2.784,2.753-2.741-2.75a.643.643,0,1,0-.91.908l2.737,2.746-2.76,2.73a.643.643,0,1,0,.9.914l2.764-2.733,2.786,2.8a.643.643,0,0,0,.91-.908Z" transform="translate(-250.356 -252.573)"/></g></g></svg>