<svg 
 xmlns="http://www.w3.org/2000/svg"
 xmlns:xlink="http://www.w3.org/1999/xlink"
 width="16px" height="16px">
<path fill-rule="evenodd"  
 d="M12.068,15.999 C11.819,15.993 11.576,15.928 11.356,15.811 L8.005,14.070 L4.632,15.807 C4.119,16.090 3.487,16.040 3.025,15.681 C2.550,15.303 2.319,14.695 2.423,14.097 L3.113,10.382 L0.470,7.824 C0.061,7.387 -0.095,6.770 0.059,6.192 L0.065,6.172 C0.257,5.574 0.734,5.155 1.311,5.075 L4.985,4.382 L6.632,0.904 C6.880,0.365 7.412,0.014 8.005,-0.000 C8.598,-0.000 9.152,0.368 9.382,0.913 L11.025,4.379 L14.698,5.046 C15.290,5.142 15.769,5.577 15.922,6.156 C16.104,6.734 15.955,7.369 15.540,7.796 L15.530,7.806 L12.895,10.382 L13.561,14.105 C13.668,14.700 13.441,15.300 12.966,15.676 C12.715,15.887 12.397,16.001 12.070,15.999 L12.068,15.999 Z"/>
</svg>
