<svg 
 xmlns="http://www.w3.org/2000/svg"
 xmlns:xlink="http://www.w3.org/1999/xlink"
 width="13px" height="15px">
<path fill-rule="evenodd"
 d="M12.331,4.185 L11.662,4.185 L11.662,12.247 C11.662,13.769 10.708,15.000 9.533,15.000 L3.536,15.000 C2.358,15.000 1.406,13.762 1.406,12.247 L1.406,4.180 L0.668,4.180 C0.298,4.180 -0.000,3.856 -0.000,3.459 C-0.000,3.060 0.301,2.738 0.668,2.738 L3.979,2.738 C4.028,1.214 5.181,-0.000 6.601,-0.000 C8.021,-0.000 9.176,1.214 9.218,2.743 L12.331,2.743 C12.701,2.743 12.999,3.067 12.999,3.464 C12.999,3.863 12.699,4.185 12.331,4.185 ZM6.603,1.351 C5.872,1.351 5.281,1.957 5.232,2.738 L7.968,2.738 C7.925,1.959 7.334,1.351 6.603,1.351 ZM10.407,4.185 L2.657,4.185 L2.657,12.247 C2.657,13.074 3.116,13.651 3.533,13.651 L3.533,13.659 L9.530,13.659 C9.947,13.659 10.407,13.079 10.407,12.255 L10.407,4.185 ZM8.572,11.918 C8.257,11.918 8.014,11.586 8.014,11.175 L8.014,6.937 C8.014,6.524 8.266,6.195 8.572,6.195 C8.880,6.195 9.129,6.524 9.129,6.937 L9.129,11.175 C9.129,11.589 8.877,11.918 8.572,11.918 ZM6.449,11.918 C6.144,11.918 5.892,11.586 5.892,11.175 L5.892,6.937 C5.892,6.524 6.144,6.195 6.449,6.195 C6.757,6.195 7.007,6.524 7.007,6.937 L7.007,11.175 C7.007,11.589 6.755,11.918 6.449,11.918 ZM4.432,11.918 C4.120,11.918 3.874,11.586 3.874,11.175 L3.874,6.937 C3.874,6.524 4.126,6.195 4.432,6.195 C4.739,6.195 4.989,6.524 4.989,6.937 L4.989,11.175 C4.989,11.589 4.737,11.918 4.432,11.918 Z"/>
</svg>
