<svg xmlns="http://www.w3.org/2000/svg" width="20" height="20" viewBox="0 0 20 20"><defs><style>.a{stroke:#707070;opacity:0;}.b{fill-rule:evenodd;}.c{stroke:none;}.d{fill:none;}</style></defs><g transform="translate(-1118 -941)"><g class="a" transform="translate(1118 941)"><rect class="c" width="20" height="20"/><rect class="d" x="0.5" y="0.5" width="19" height="19"/></g><path class="b" d="M1121,947a1,1,0,0,1,0-2h14a1,1,0,0,1,0,2Zm5-3a1,1,0,0,1,0-2h4a1,1,0,0,1,0,2Zm7,5a1,1,0,0,1,2,0v8a3,3,0,0,1-3,3h-8a3,3,0,0,1-3-3h0v-8a1,1,0,0,1,2,0h0v8a1,1,0,0,0,1,1h8a1,1,0,0,0,1-1h0Zm-8.5,1.5a1,1,0,0,1,2,0v4a1,1,0,0,1-2,0Zm5,0a1,1,0,0,1,2,0v4a1,1,0,0,1-2,0Z"/></g></svg>
