<!-- Generated by IcoMoon.io -->
<svg version="1.1" xmlns="http://www.w3.org/2000/svg" width="1024" height="1024" viewBox="0 0 1024 1024">
<title></title>
<g id="icomoon-ignore">
</g>
<path  d="M929.92 736c8.192 16.768 1.728 36.864-14.784 46.144l-2.496 1.344-385.216 169.472c-18.624 8.576-40.064 9.152-59.136 1.6l-3.776-1.6-385.216-169.472c-18.176-8.512-25.92-29.76-17.216-47.552 8.192-16.768 28.224-24.512 46.016-17.92l2.688 1.152 385.216 169.408 385.152-169.408c18.24-8.512 40.064-0.96 48.768 16.768v0.064zM929.92 520.448c8.192 16.832 1.728 36.928-14.784 46.208l-2.496 1.28-385.216 169.472c-18.624 8.64-40.064 9.216-59.136 1.6l-3.776-1.6-385.216-169.472c-18.176-8.448-25.92-29.76-17.216-47.488 8.192-16.768 28.224-24.576 46.016-17.92l2.688 1.088 385.216 169.408 385.152-169.408c18.24-8.448 40.064-0.96 48.768 16.832 0 0 0 0 0 0v0zM464.512 70.912c19.904-9.28 43.008-9.28 62.912 0l374.848 164.608c36.48 16.96 51.968 59.456 34.56 94.976-7.168 14.784-19.392 26.688-34.56 33.728l-374.848 164.672c-19.904 9.216-43.008 9.216-62.912 0l-374.848-164.672c-36.48-16.896-51.904-59.456-34.56-94.976 7.232-14.784 19.392-26.688 34.56-33.728l374.848-164.608zM496 135.232l-374.912 164.672 374.912 164.672 374.848-164.672-374.848-164.672z"></path>
</svg>
