<svg xmlns="http://www.w3.org/2000/svg" width="16" height="16" viewBox="0 0 16 16"><defs><style>.a{fill:#fff;opacity:0;}.c,.d{stroke:none;}.d{fill:#707070;}</style></defs><g transform="translate(-755.826 -576.459)"><g class="a" transform="translate(756 577)"><path class="c" d="M 15.326171875 14.958984375 L 0.326171875 14.958984375 L 0.326171875 -0.041015625 L 15.326171875 -0.041015625 L 15.326171875 14.958984375 Z"/><path class="d" d="M 0.826171875 0.458984375 L 0.826171875 14.458984375 L 14.826171875 14.458984375 L 14.826171875 0.458984375 L 0.826171875 0.458984375 M -0.173828125 -0.541015625 L 15.826171875 -0.541015625 L 15.826171875 15.458984375 L -0.173828125 15.458984375 L -0.173828125 -0.541015625 Z"/></g><g transform="translate(654.322 484.853)"><path class="b" d="M102.7,673.7a.669.669,0,0,1,.712-.7.693.693,0,0,1,.685.734c.027.343,0,.69.011,1.036.019.866.206,1.067,1.072,1.084.834.016,1.669.005,2.5.006q2.892,0,5.785,0c1.328,0,1.443-.117,1.449-1.408,0-.23-.01-.462.011-.69.045-.486.273-.739.659-.761a.712.712,0,0,1,.752.76c.029.459.013.921.01,1.381-.01,1.491-.67,2.159-2.161,2.168-1.554.009-3.108,0-4.662,0H108.15c-1.18,0-2.36.016-3.54-.007a1.765,1.765,0,0,1-1.888-1.534A15.112,15.112,0,0,1,102.7,673.7Z" transform="translate(0 -570.679)"/><path class="b" d="M178.649,98.738c-1.484,1.485-2.966,2.689-4.45,4.173-.061.061-.123.121-.184.182a.763.763,0,0,1-.855.251.714.714,0,0,1-.262-.176,1.03,1.03,0,0,1-.133-.107c-.763-.742-4.014-4-4.765-4.757a1.811,1.811,0,0,1-.222-.263.646.646,0,0,1,.066-.867.68.68,0,0,1,.867-.132,1.635,1.635,0,0,1,.394.329c.505.5,2.334,2.328,3.558,3.554q0-2.873,0-5.745c0-.575-.018-1.151.01-1.725.027-.533.285-.8.7-.818s.686.246.745.772a5.527,5.527,0,0,1,.011.6q0,1.9,0,3.8c0,.946,0,3.118,0,3.118l.2-.193,1.141-1.137c.793-.792,1.576-1.6,2.383-2.373a.763.763,0,0,1,1.1-.048.75.75,0,0,1,.131,1.108C179.012,98.371,178.73,98.657,178.649,98.738Z" transform="translate(-63.879 0)"/></g></g></svg>
