<svg 
 xmlns="http://www.w3.org/2000/svg"
 xmlns:xlink="http://www.w3.org/1999/xlink"
 width="15px" height="20px">
<path fill-rule="evenodd"
 d="M11.588,19.665 C10.672,19.916 9.840,20.000 9.008,20.000 C8.093,20.000 7.261,19.833 6.678,19.749 C4.431,19.331 3.016,17.406 2.351,16.569 L2.184,16.402 C1.352,15.314 0.437,13.975 0.437,13.975 C0.104,13.473 -0.063,12.803 0.021,12.218 C0.104,11.632 0.437,11.046 0.936,10.711 C1.602,10.209 2.517,10.209 3.266,10.544 L3.266,5.439 C3.266,4.268 4.181,3.347 5.346,3.347 C6.511,3.347 7.427,4.268 7.344,5.439 L7.344,7.531 L7.760,7.531 C8.509,7.531 9.174,7.866 9.507,8.452 C9.757,8.368 10.007,8.284 10.256,8.284 C11.088,8.284 11.754,8.703 12.087,9.372 C12.337,9.289 12.586,9.205 12.836,9.205 C14.001,9.205 14.916,10.125 15.000,11.213 L15.000,14.812 C15.000,17.155 13.585,19.079 11.588,19.665 ZM13.335,11.213 C13.335,10.962 13.169,10.795 12.919,10.795 C12.753,10.795 12.670,10.879 12.586,10.962 C12.503,11.046 12.420,11.213 12.420,11.297 C12.420,11.799 12.087,12.134 11.588,12.134 C11.088,12.134 10.756,11.799 10.756,11.297 L10.756,10.293 C10.756,10.042 10.589,9.874 10.340,9.874 C10.090,9.874 9.923,10.042 9.923,10.293 L9.923,11.297 C9.923,11.799 9.591,12.134 9.091,12.134 C8.592,12.134 8.259,11.799 8.259,11.297 L8.259,9.540 C8.259,9.289 8.093,9.121 7.843,9.121 C7.593,9.121 7.427,9.289 7.427,9.540 L7.427,11.297 C7.427,11.799 7.094,12.134 6.595,12.134 C6.095,12.134 5.763,11.799 5.763,11.297 L5.763,5.439 C5.763,5.188 5.596,5.021 5.346,5.021 C5.097,5.021 4.930,5.188 5.014,5.439 L5.014,12.636 L5.014,12.803 C4.930,12.887 4.930,12.887 4.930,12.971 C4.930,13.054 4.847,13.054 4.847,13.138 C4.847,13.138 4.847,13.222 4.764,13.222 L4.681,13.305 L4.598,13.305 C4.514,13.389 4.514,13.389 4.431,13.389 L3.932,13.389 C3.849,13.305 3.849,13.305 3.765,13.305 C3.682,13.305 3.682,13.222 3.599,13.222 C3.599,13.222 3.516,13.222 3.516,13.138 L3.433,13.054 L2.850,12.218 C2.767,12.134 2.600,11.966 2.434,11.966 C2.268,11.883 2.101,11.966 1.935,12.050 C1.602,12.218 1.519,12.636 1.768,12.971 C1.768,12.971 2.684,14.310 3.433,15.397 L3.599,15.565 C4.098,16.318 5.346,17.824 6.928,18.159 C8.426,18.410 9.923,18.410 11.088,18.075 C12.337,17.741 13.252,16.402 13.252,14.895 L13.335,14.895 L13.335,11.213 ZM9.091,5.439 C8.592,5.439 8.259,5.104 8.259,4.602 C8.259,3.012 6.928,1.674 5.346,1.674 C3.765,1.674 2.434,3.012 2.434,4.602 C2.434,5.104 2.101,5.439 1.602,5.439 C1.186,5.439 0.770,5.104 0.770,4.602 C0.770,2.092 2.850,-0.000 5.346,-0.000 C7.843,-0.000 9.923,2.092 9.923,4.602 C9.923,5.104 9.591,5.439 9.091,5.439 Z"/>
</svg>
