<svg 
 xmlns="http://www.w3.org/2000/svg"
 xmlns:xlink="http://www.w3.org/1999/xlink"
 width="15px" height="15px">
<path fill-rule="evenodd" d="M3.423,7.500 C3.423,9.751 5.248,11.576 7.500,11.576 C9.751,11.576 11.576,9.751 11.576,7.500 C11.576,5.248 9.751,3.423 7.500,3.423 C5.248,3.423 3.423,5.248 3.423,7.500 ZM7.500,-0.000 C3.357,-0.000 -0.000,3.358 -0.000,7.500 C-0.000,11.642 3.357,15.000 7.500,15.000 C11.642,15.000 15.000,11.642 15.000,7.500 C15.000,3.358 11.642,-0.000 7.500,-0.000 ZM7.500,13.567 C4.149,13.567 1.432,10.851 1.432,7.500 C1.432,4.149 4.149,1.433 7.500,1.433 C10.850,1.433 13.567,4.149 13.567,7.500 C13.567,10.851 10.850,13.567 7.500,13.567 L7.500,13.567 Z"/>
</svg>
