<svg 
 xmlns="http://www.w3.org/2000/svg"
 xmlns:xlink="http://www.w3.org/1999/xlink"
 width="14px" height="14px">
<path fill-rule="evenodd" d="M13.906,0.486 C13.967,0.616 14.000,0.760 14.000,0.907 L14.000,13.094 C14.000,13.594 13.634,14.000 13.183,14.000 L13.183,14.000 L0.816,14.000 C0.365,14.000 -0.000,13.594 -0.000,13.094 L-0.000,13.094 L-0.000,3.101 C-0.000,2.600 0.366,2.195 0.817,2.195 C0.918,2.195 1.017,2.216 1.111,2.256 L5.777,4.261 C5.997,4.355 6.243,4.340 6.451,4.218 L12.803,0.105 C13.202,-0.127 13.696,0.043 13.906,0.486 ZM12.775,1.657 L7.022,5.421 C6.549,5.696 5.998,5.756 5.486,5.586 L5.334,5.529 L1.225,3.762 L1.225,12.641 L12.775,12.641 L12.775,1.657 Z"/>
</svg>
