<svg xmlns="http://www.w3.org/2000/svg" width="14" height="15"><path d="M8.712 4.179l.281.285V1.591C8.993.714 8.273 0 7.395 0h-.791c-.878 0-1.598.714-1.598 1.591v2.873l.281-.285H.808A.809.809 0 000 4.987v2.611c0 .447.364.808.808.808h.263v-.285h-.28v3.031c0 .485-.048 1.908-.128 2.371a6.733 6.733 0 01-.126.593l-.01.076a.81.81 0 00.807.808h11.331a.81.81 0 00.807-.808l-.01-.074a9.207 9.207 0 01-.126-.616c-.083-.484-.125-1.911-.127-2.402V8.121h-.281v.285h.264A.81.81 0 0014 7.598V4.987a.81.81 0 00-.808-.808h-4.48zm4.047 2.967H1.24c.009 0 .017.008.017.024V5.415c0 .016-.008.024-.017.024h5.024V1.722c0-.297.223-.462.641-.462h.189c.418 0 .641.165.641.462v3.717h5.024c-.008 0-.017-.008-.017-.024V7.17c0-.016.009-.024.017-.024zm-3.058 3.171a.485.485 0 00-.479.481v3.226l.281-.285H7.395l.281.285v-3.226a.485.485 0 00-.479-.481h-.132a.485.485 0 00-.478.481v3.226l.281-.285h-2.24l.281.285v-3.226a.485.485 0 00-.479-.481h-.132a.484.484 0 00-.477.481v3.226l.28-.285H1.504l.265.379c.037-.108.089-.302.141-.57.086-.44.137-1.868.137-2.396V8.121l-.28.285h10.465l-.28-.285v3.031c0 .528.051 1.956.137 2.396.052.268.104.461.142.57l.265-.379H10.03l.28.285v-3.226a.484.484 0 00-.478-.481h-.131z"/></svg>