<svg 
 xmlns="http://www.w3.org/2000/svg"
 xmlns:xlink="http://www.w3.org/1999/xlink"
 width="14px" height="16px">
<path fill-rule="evenodd" d="M8.712,4.457 L8.992,4.762 L8.992,1.697 C8.992,0.761 8.273,-0.000 7.395,-0.000 L6.604,-0.000 C5.726,-0.000 5.006,0.761 5.006,1.697 L5.006,4.762 L5.287,4.457 L0.807,4.457 C0.364,4.457 -0.000,4.843 -0.000,5.319 L-0.000,8.105 C-0.000,8.581 0.364,8.967 0.807,8.967 L1.071,8.967 L1.071,8.663 L0.791,8.663 L0.791,11.895 C0.791,12.412 0.742,13.931 0.663,14.424 C0.615,14.719 0.567,14.938 0.537,15.057 L0.527,15.138 C0.527,15.614 0.891,16.000 1.334,16.000 L12.664,16.000 C13.108,16.000 13.472,15.614 13.472,15.138 L13.462,15.059 C13.413,14.842 13.371,14.623 13.336,14.402 C13.253,13.886 13.211,12.363 13.209,11.839 L13.209,8.663 L12.928,8.663 L12.928,8.967 L13.192,8.967 C13.635,8.967 14.000,8.581 14.000,8.105 L14.000,5.319 C14.000,4.843 13.635,4.457 13.192,4.457 L8.711,4.457 L8.712,4.457 ZM12.759,7.622 L1.240,7.622 C1.248,7.622 1.257,7.631 1.257,7.648 L1.257,5.776 C1.257,5.793 1.248,5.802 1.240,5.802 L6.263,5.802 L6.263,1.836 C6.263,1.520 6.487,1.344 6.905,1.344 L7.094,1.344 C7.512,1.344 7.735,1.520 7.735,1.836 L7.735,5.801 L12.759,5.801 C12.750,5.801 12.742,5.793 12.742,5.776 L12.742,7.648 C12.742,7.631 12.750,7.622 12.759,7.622 ZM9.700,11.005 C9.439,11.006 9.226,11.235 9.222,11.518 L9.222,14.959 L9.502,14.655 L7.395,14.655 L7.675,14.959 L7.675,11.518 C7.672,11.234 7.459,11.006 7.197,11.005 L7.065,11.005 C6.803,11.006 6.591,11.235 6.587,11.518 L6.587,14.959 L6.867,14.655 L4.628,14.655 L4.909,14.959 L4.909,11.518 C4.905,11.235 4.692,11.006 4.430,11.005 L4.298,11.005 C4.037,11.007 3.824,11.235 3.820,11.518 L3.820,14.959 L4.101,14.655 L1.504,14.655 L1.768,15.059 C1.805,14.944 1.858,14.737 1.910,14.451 C1.996,13.981 2.047,12.458 2.047,11.895 L2.047,8.663 L1.767,8.967 L12.232,8.967 L11.952,8.663 L11.952,11.895 C11.952,12.458 12.003,13.981 12.088,14.452 C12.140,14.737 12.193,14.943 12.230,15.059 L12.496,14.655 L10.030,14.655 L10.310,14.959 L10.310,11.518 C10.306,11.235 10.094,11.006 9.832,11.005 L9.700,11.005 Z"/>
</svg>
