<svg xmlns="http://www.w3.org/2000/svg" width="15" height="15"><path d="M12.222 15H2.778A2.786 2.786 0 010 12.222V2.778A2.786 2.786 0 012.778 0h9.444A2.786 2.786 0 0115 2.778v9.444A2.786 2.786 0 0112.222 15zm1.667-12.222c0-.917-.75-1.667-1.667-1.667H2.778c-.917 0-1.667.75-1.667 1.667v9.444c0 .917.75 1.667 1.667 1.667h6.666v-1.667a2.786 2.786 0 012.778-2.778h1.667V2.778zm0 7.777h-1.667c-.917 0-1.667.75-1.667 1.667v1.667h1.667c.917 0 1.667-.75 1.667-1.667v-1.667zM8.333 8.889H5a.557.557 0 01-.556-.556c0-.305.25-.555.556-.555h2L3.083 3.861a.538.538 0 010-.778.538.538 0 01.778 0L7.778 7V5c0-.306.25-.556.555-.556.306 0 .556.25.556.556v3.333a.55.55 0 01-.167.389c-.083.111-.222.167-.389.167z"/></svg>