<svg xmlns="http://www.w3.org/2000/svg" width="15" height="15"><path d="M11.787 13.179v-9.2c0-.425-.216-.764-.645-.764H1.699c-.45 0-.628.314-.628.764v9.2c0 .459.161.75.628.75 1.485.003 2.915 0 4.405 0h5.038c.442 0 .645-.322.645-.75zm-.509-11.03c1.036.003 1.576.525 1.579 1.566.006 1.497 0 8.191.003 9.704 0 .528-.118 1.022-.593 1.302a1.931 1.931 0 01-.947.279H1.532c-.991 0-1.521-.554-1.525-1.521-.009-3.279-.009-6.557 0-9.835.002-.96.563-1.485 1.525-1.49 3.041-.008 6.705-.01 9.746-.005zM13.454.001c.781-.001 1.287.318 1.468.993.05.191.072.39.072.588C15 4.597 15 8.286 15 11.302c0 .843-.213 1.397-.983 1.537-.378.069-.644 0-.726-.448-.082-.448.182-.576.32-.624.223-.079.335-.175.335-.413-.004-3.056-.004-6.791-.004-9.848 0-.346-.081-.428-.432-.428-3.05-.002-6.466 0-9.516-.006-.25 0-.471.011-.554.251-.05.14-.29.457-.622.399-.332-.058-.524-.278-.493-.643C2.39.365 3.01 0 3.825.001c1.533.003 8.095.003 9.629 0zM3.665 9.105c-.216 0-.45-.124-.45-.54 0-.416.234-.529.45-.529h5.593c.215 0 .386.212.386.529 0 .318-.171.54-.386.54H3.665z"/></svg>