<svg xmlns="http://www.w3.org/2000/svg" width="15" height="15"><path d="M12.222 15H2.778A2.786 2.786 0 010 12.222V2.778A2.786 2.786 0 012.778 0h9.444A2.786 2.786 0 0115 2.778v9.444A2.786 2.786 0 0112.222 15zm1.667-12.222c0-.917-.75-1.667-1.667-1.667h-1.667v1.667c0 .917.75 1.667 1.667 1.667h1.667V2.778zm0 2.778h-1.667a2.786 2.786 0 01-2.778-2.778V1.111H2.778c-.917 0-1.667.75-1.667 1.667v9.444c0 .917.75 1.667 1.667 1.667h9.444c.917 0 1.667-.75 1.667-1.667V5.556zm-5.556 5A.557.557 0 017.778 10V8l-3.917 3.917a.538.538 0 01-.778 0 .538.538 0 010-.778L7 7.222H5a.557.557 0 01-.556-.555c0-.306.25-.556.556-.556h3.333c.167 0 .306.056.389.167a.55.55 0 01.167.389V10c0 .306-.25.556-.556.556z"/></svg>