<svg xmlns="http://www.w3.org/2000/svg" width="15" height="15"><path d="M9.108 3.064H3.377a.528.528 0 01-.161-.055.264.264 0 010-.379l1.232-1.248a.795.795 0 000-1.14.77.77 0 00-1.125 0L.216 3.281c-.214.217-.267.542-.16.868.053.163.16.271.268.38L3.27 7.513a.77.77 0 001.124 0 .793.793 0 000-1.14L3.216 5.18c-.054-.055-.054-.109-.054-.217 0-.163.108-.272.268-.272h5.678c2.357 0 4.285 1.954 4.285 4.341 0 2.387-1.928 4.34-4.285 4.34H.806c-.429 0-.804.38-.804.814 0 .434.375.814.804.814h8.302C12.375 15 15 12.342 15 9.032s-2.625-5.968-5.892-5.968z"/></svg>