<svg xmlns="http://www.w3.org/2000/svg" width="15" height="15"><path d="M14.017 12.839c-.378.069-.644 0-.726-.448-.082-.448.182-.576.32-.624.223-.079.335-.175.335-.413-.004-3.056-.004-6.791-.004-9.848 0-.346-.081-.428-.432-.428-3.05-.002-6.466 0-9.516-.006-.25 0-.471.011-.554.251-.05.14-.29.457-.622.399-.332-.058-.524-.278-.493-.643C2.39.365 3.01 0 3.825.001c1.533.003 8.095.003 9.629 0 .781-.001 1.287.318 1.468.993.05.191.072.39.072.588C15 4.597 15 8.286 15 11.302c0 .843-.213 1.397-.983 1.537zm-2.739-10.69c1.036.003 1.576.525 1.579 1.566.006 1.497 0 8.191.003 9.704 0 .528-.118 1.022-.593 1.302a1.931 1.931 0 01-.947.279H1.532c-.991 0-1.521-.554-1.525-1.521-.009-3.279-.009-6.557 0-9.835.002-.96.563-1.485 1.525-1.49 3.041-.008 6.705-.01 9.746-.005zM1.071 3.979v9.2c0 .459.161.75.628.75 1.485.003 2.915 0 4.405 0h5.038c.442 0 .645-.322.645-.75v-9.2c0-.425-.216-.764-.645-.764H1.699c-.45 0-.628.314-.628.764zm7.271 7.044L6.551 9.245l-1.638 1.649c-.152.153-.405.232-.7-.061-.296-.294-.21-.54-.058-.692l1.637-1.65-1.859-1.846c-.142-.142-.215-.379.06-.656.277-.279.507-.2.649-.058l1.859 1.846 1.595-1.605c.151-.152.423-.125.648.099.225.223.262.502.111.654L7.26 8.531l1.791 1.778c.142.141.114.395-.096.607-.21.212-.471.248-.613.107z"/></svg>