<svg xmlns="http://www.w3.org/2000/svg" width="15" height="15"><path d="M0 15V8.487h3.441c.252 0 .457.201.457.449a.453.453 0 01-.457.448H.914v4.718h13.172V9.384h-2.61a.453.453 0 01-.457-.448c0-.248.205-.449.457-.449H15V15H0zm9.648-6.408c-.901 1.253-1.792 2.109-1.829 2.145l-.319.304-.319-.305a16.675 16.675 0 01-1.829-2.145 12.267 12.267 0 01-1.267-2.162c-.393-.889-.592-1.727-.592-2.493C3.493 1.766 5.29 0 7.5 0s4.007 1.766 4.007 3.937c0 .767-.199 1.604-.592 2.493a12.205 12.205 0 01-1.267 2.162zM7.5.898V.897c-1.706 0-3.094 1.364-3.094 3.039 0 2.33 2.246 4.932 3.094 5.831.848-.899 3.094-3.501 3.094-5.83C10.594 2.261 9.206.898 7.5.898zM5.852 3.985c0-.893.738-1.618 1.648-1.618.91 0 1.647.724 1.647 1.618-.001.894-.738 1.618-1.647 1.619-.91 0-1.648-.725-1.648-1.619zm2.382 0a.73.73 0 00-.734-.721.728.728 0 00-.734.721c0 .398.328.721.734.721a.727.727 0 00.734-.721z"/></svg>