<svg xmlns="http://www.w3.org/2000/svg" xmlns:xlink="http://www.w3.org/1999/xlink" version="1.1" width="15.999999046325684" height="15.999999046325684" viewBox="0 0 15.999999046325684 15.999999046325684"><g><path d="M9.37329,1.1264C9.07748,1.09174,8.80861,1.29818,8.77107,1.58878C8.73354,1.87938,8.94138,2.14536,9.23661,2.18453C10.3131,2.3205,11.3373,2.72151,12.2142,3.35039C10.2525,3.78932,9.65586,5.11785,9.53058,6.26718C9.34888,7.92851,10.5513,8.79998,11.347,9.37651C11.6263,9.57918,12.0483,9.88531,12.0678,10.0282C12.0705,10.049,12.051,10.1184,11.9566,10.2352C10.9218,11.5178,10.5361,12.5824,10.8117,13.401C10.8957,13.6496,11.0709,13.9493,11.4267,14.1984C10.4963,14.681,9.45967,14.9333,8.40678,14.9333C8.3558,14.9333,8.3059,14.9274,8.25491,14.9264C8.93451,13.8032,8.69098,12.9546,8.31295,12.408C7.39634,11.0832,6.02631,10.6725,4.736,11.3381C4.64651,11.3856,4.57329,11.3664,4.15295,10.9776C3.73858,10.5936,3.08122,9.99517,2.11851,10.1722C2.03336,9.85224,1.9661,9.52424,1.93139,9.18558C1.90031,8.89287,1.63483,8.67968,1.33695,8.70824C1.03919,8.73811,0.821695,8.99944,0.851526,9.29278C1.23636,13.1087,4.50711,16.0124,8.40678,16C12.5939,16,16,12.6506,16,8.53331C16,4.78292,13.1515,1.59893,9.37329,1.1264ZM2.49275,11.2053C2.80407,11.217,3.0541,11.4256,3.40936,11.7541C3.81614,12.1312,4.43227,12.6986,5.23986,12.2826C6.31322,11.728,7.06386,12.4992,7.41586,13.0074C7.55363,13.2064,7.90563,13.7173,7.03566,14.7866C5.02993,14.3679,3.34464,13.0393,2.49275,11.2053ZM12.4816,13.5162C12.1258,13.416,11.9083,13.265,11.8405,13.065C11.6957,12.6357,12.0564,11.8256,12.8054,10.8986C13.0744,10.5653,13.1878,10.225,13.1422,9.88744C13.062,9.29544,12.5413,8.91784,11.9897,8.51838C11.2542,7.98505,10.4933,7.43411,10.6083,6.38185C10.7021,5.52745,11.0877,4.40959,13.2643,4.27999C14.3276,5.45116,14.9153,6.96519,14.9153,8.53331C14.9153,10.5461,13.9634,12.3424,12.4816,13.5162ZM3.70278,9.46131C3.9097,9.64645,4.22589,9.64645,4.43281,9.46131C6.92447,7.23358,8.13559,5.44692,8.13559,3.99999C8.13559,1.79413,6.31105,0,4.0678,0C1.82454,0,0,1.79413,0,3.99999C0,5.44692,1.21112,7.23358,3.70278,9.46131ZM4.0678,1.06666C5.71281,1.06666,7.05085,2.38239,7.05085,3.99999C7.05085,4.73119,6.52149,6.06878,4.0678,8.34025C1.6141,6.06878,1.08475,4.73119,1.08475,3.99999C1.08475,2.38239,2.42278,1.06666,4.0678,1.06666ZM2.71186,3.99999C2.7115,4.73662,3.31868,5.33397,4.0678,5.33397C4.81692,5.33397,5.42409,4.73662,5.42373,3.99999C5.42409,3.26336,4.81692,2.66601,4.0678,2.66601C3.31868,2.66601,2.7115,3.26336,2.71186,3.99999Z" fill-opacity="1"/></g></svg>
