<svg 
 xmlns="http://www.w3.org/2000/svg"
 xmlns:xlink="http://www.w3.org/1999/xlink"
 width="13px" height="14px">
<path fill-rule="evenodd"
 d="M12.269,14.000 L0.735,14.000 C0.733,14.000 0.731,14.000 0.729,14.000 C0.326,13.999 -0.000,13.672 0.001,13.269 L0.002,1.732 C0.002,1.730 0.002,1.728 0.002,1.726 C0.004,1.323 0.332,0.998 0.735,0.999 L6.373,0.999 C6.373,0.999 6.374,0.999 6.374,0.999 C6.780,0.999 7.108,1.328 7.108,1.734 L7.108,1.737 C7.108,2.143 6.779,2.473 6.373,2.474 L1.477,2.471 L1.477,12.527 L11.527,12.527 L11.527,6.626 C11.529,6.223 11.856,5.896 12.259,5.895 L12.263,5.895 C12.669,5.894 12.999,6.223 13.000,6.629 L13.000,13.266 C13.000,13.267 13.000,13.268 13.000,13.269 C13.000,13.673 12.672,14.000 12.269,14.000 ZM5.391,9.888 C5.391,9.889 5.390,9.890 5.389,9.891 C5.102,10.177 4.637,10.176 4.351,9.888 C4.063,9.600 4.063,9.134 4.351,8.846 L11.395,0.799 C11.395,0.799 11.395,0.798 11.395,0.798 C11.682,0.511 12.147,0.511 12.434,0.797 L12.437,0.799 C12.724,1.087 12.724,1.553 12.437,1.841 L5.391,9.888 Z"/>
</svg>
