<svg 
 xmlns="http://www.w3.org/2000/svg"
 xmlns:xlink="http://www.w3.org/1999/xlink"
 width="14px" height="14px">
<path fill-rule="evenodd"
 d="M10.560,13.999 C10.342,13.994 10.129,13.937 9.937,13.834 L7.004,12.311 L4.054,13.831 C3.605,14.079 3.052,14.035 2.647,13.721 C2.231,13.390 2.029,12.858 2.120,12.335 L2.724,9.084 L0.411,6.846 C0.053,6.464 -0.083,5.924 0.052,5.418 L0.057,5.401 C0.225,4.877 0.642,4.511 1.148,4.441 L4.361,3.834 L5.803,0.791 C6.020,0.319 6.486,0.012 7.004,-0.000 C7.524,-0.000 8.008,0.322 8.209,0.799 L9.647,3.832 L12.861,4.415 C13.379,4.499 13.798,4.880 13.932,5.387 C14.091,5.892 13.961,6.448 13.597,6.822 L13.589,6.830 L11.283,9.084 L11.866,12.342 C11.959,12.863 11.761,13.388 11.345,13.717 C11.125,13.901 10.848,14.001 10.561,13.999 L10.560,13.999 ZM7.004,11.165 L10.084,12.763 C10.166,12.808 10.257,12.834 10.350,12.840 C10.454,12.842 10.555,12.806 10.635,12.739 L10.649,12.728 C10.823,12.596 10.909,12.378 10.872,12.163 L10.252,8.698 L12.701,6.300 C12.852,6.142 12.904,5.914 12.837,5.706 L12.832,5.685 C12.781,5.486 12.615,5.336 12.412,5.306 L12.398,5.303 L9.007,4.687 L7.482,1.470 C7.396,1.283 7.210,1.162 7.004,1.159 C6.793,1.167 6.604,1.295 6.517,1.488 L5.001,4.687 L1.593,5.331 C1.386,5.358 1.225,5.499 1.150,5.723 C1.100,5.937 1.158,6.162 1.304,6.325 L3.758,8.698 L3.114,12.166 C3.081,12.379 3.166,12.594 3.335,12.728 C3.424,12.796 3.533,12.832 3.645,12.830 C3.731,12.831 3.817,12.810 3.893,12.769 L3.904,12.762 L7.006,11.165 L7.004,11.165 Z"/>
</svg>
