<svg 
 xmlns="http://www.w3.org/2000/svg"
 xmlns:xlink="http://www.w3.org/1999/xlink"
 width="26px" height="24px">
<path fill-rule="evenodd"  fill="rgb(122, 134, 154)"
 d="M18.750,10.000 C20.466,10.030 21.883,8.711 21.914,7.054 C21.946,5.396 20.580,4.028 18.864,3.998 C18.826,3.997 18.788,3.997 18.750,3.998 C17.034,4.028 15.668,5.396 15.700,7.054 C15.730,8.668 17.078,9.970 18.750,10.000 ZM24.186,-0.000 L1.813,-0.000 C0.802,-0.000 -0.001,0.794 -0.001,1.769 L-0.001,22.231 C-0.001,23.206 0.802,24.000 1.813,24.000 L24.186,24.000 C25.196,24.000 26.000,23.206 26.000,22.231 L26.000,1.769 C26.000,0.794 25.196,-0.000 24.186,-0.000 ZM17.514,12.357 C17.309,12.118 17.007,11.976 16.686,11.969 C16.356,11.969 16.124,12.118 15.857,12.325 L14.647,13.313 C14.394,13.488 14.193,13.607 13.903,13.607 C13.641,13.608 13.388,13.517 13.191,13.350 C13.096,13.267 13.003,13.181 12.912,13.094 L10.430,9.457 C10.157,9.156 9.763,8.985 9.349,8.987 C8.915,8.987 8.513,9.194 8.261,9.475 L2.070,19.012 L2.070,2.732 C2.135,2.307 2.478,2.000 2.918,2.000 L23.073,2.000 C23.520,2.000 23.882,2.319 23.908,2.750 L23.927,19.025 L17.512,12.357 L17.514,12.357 Z"/>
</svg>
