<svg 
 xmlns="http://www.w3.org/2000/svg"
 xmlns:xlink="http://www.w3.org/1999/xlink"
 width="14px" height="12px">
<path fill-rule="evenodd"  fill="rgb(44, 109, 210)"
 d="M1.029,4.888 C0.460,4.888 0.000,5.385 0.000,6.001 C0.000,6.615 0.460,7.111 1.029,7.111 C1.598,7.111 2.058,6.615 2.058,6.001 C2.058,5.387 1.596,4.888 1.029,4.888 ZM1.029,9.777 C0.460,9.777 0.000,10.273 0.000,10.887 C0.000,11.501 0.460,12.000 1.029,12.000 C1.598,12.000 2.058,11.503 2.058,10.887 C2.058,10.276 1.596,9.777 1.029,9.777 ZM1.029,0.000 C0.460,0.000 0.000,0.497 0.000,1.110 C0.000,1.724 0.460,2.221 1.029,2.221 C1.598,2.221 2.058,1.724 2.058,1.110 C2.058,0.499 1.596,0.000 1.029,0.000 ZM13.588,0.445 L4.117,0.445 C3.889,0.445 3.705,0.643 3.705,0.889 L3.705,1.334 C3.705,1.580 3.889,1.779 4.117,1.779 L13.588,1.779 C13.816,1.779 14.000,1.580 14.000,1.334 L14.000,0.889 C14.000,0.643 13.816,0.445 13.588,0.445 ZM13.588,10.221 L4.117,10.221 C3.889,10.221 3.705,10.420 3.705,10.666 L3.705,11.111 C3.705,11.357 3.889,11.555 4.117,11.555 L13.588,11.555 C13.816,11.555 14.000,11.357 14.000,11.111 L14.000,10.666 C14.000,10.422 13.816,10.221 13.588,10.221 ZM13.588,5.335 L4.117,5.335 C3.889,5.335 3.705,5.534 3.705,5.780 L3.705,6.224 C3.705,6.468 3.889,6.669 4.117,6.669 L13.588,6.669 C13.816,6.669 14.000,6.470 14.000,6.224 L14.000,5.780 C14.000,5.534 13.816,5.335 13.588,5.335 Z"/>
</svg>
