<svg 
 xmlns="http://www.w3.org/2000/svg"
 xmlns:xlink="http://www.w3.org/1999/xlink"
 width="18px" height="16px">
<path fill-rule="evenodd" d="M15.000,2.182 L6.562,2.182 C6.075,0.909 4.837,-0.000 3.375,-0.000 C1.762,-0.000 0.375,1.127 0.075,2.618 C0.037,2.836 -0.000,3.054 -0.000,3.273 L-0.000,13.091 C-0.000,14.691 1.350,16.000 3.000,16.000 L15.000,16.000 C16.650,16.000 18.000,14.691 18.000,13.091 L18.000,5.091 C18.000,3.491 16.650,2.182 15.000,2.182 ZM16.500,5.091 L16.500,10.364 L11.925,8.800 L13.312,3.636 L15.000,3.636 C15.825,3.636 16.500,4.291 16.500,5.091 ZM11.775,3.636 L10.500,8.364 L6.750,7.091 L6.750,3.636 L11.775,3.636 L11.775,3.636 ZM1.500,3.636 L1.500,3.273 C1.500,2.873 1.650,2.473 1.875,2.182 C2.212,1.745 2.737,1.454 3.375,1.454 C4.012,1.454 4.537,1.745 4.875,2.182 C5.100,2.473 5.250,2.873 5.250,3.273 L5.250,10.291 C4.725,9.927 4.050,9.745 3.375,9.745 C2.700,9.745 2.025,9.964 1.500,10.291 L1.500,3.636 ZM15.000,14.545 L3.000,14.545 C2.175,14.545 1.500,13.891 1.500,13.091 L1.500,12.982 C1.500,11.964 2.325,11.164 3.375,11.164 C4.425,11.164 5.250,11.964 5.250,12.982 C5.250,13.382 5.587,13.709 6.000,13.709 C6.412,13.709 6.750,13.382 6.750,12.982 L6.750,8.618 L16.500,11.927 L16.500,13.091 C16.500,13.891 15.825,14.545 15.000,14.545 L15.000,14.545 Z"/>
</svg>
