<svg 
 xmlns="http://www.w3.org/2000/svg"
 xmlns:xlink="http://www.w3.org/1999/xlink"
 width="25px" height="26px">
<path fill-rule="evenodd"  fill="rgb(122, 134, 154)"
 d="M17.438,25.996 L17.438,15.217 C19.048,13.305 20.649,10.866 21.217,8.270 L24.619,7.485 L24.619,24.340 L17.438,25.996 ZM12.555,16.797 C12.424,16.913 12.224,16.913 12.093,16.797 C10.513,15.422 5.617,10.803 5.617,6.345 C5.617,2.976 8.598,0.238 12.324,0.116 C16.050,0.238 19.031,2.976 19.031,6.345 C19.031,10.804 14.135,15.423 12.555,16.797 ZM15.198,6.313 C15.198,6.309 15.198,6.304 15.198,6.300 C15.191,4.746 13.891,3.493 12.296,3.500 C10.701,3.508 9.414,4.773 9.422,6.327 C9.430,7.881 10.729,9.134 12.324,9.127 C13.915,9.123 15.202,7.863 15.198,6.313 ZM7.209,24.338 L0.028,25.995 L0.028,9.141 L3.448,8.353 C4.031,10.918 5.616,13.325 7.209,15.216 L7.209,24.338 ZM12.324,20.098 L13.892,18.772 L13.892,18.772 C14.595,18.175 15.270,17.546 15.914,16.890 L15.914,25.995 L8.734,24.339 L8.734,16.890 C9.378,17.547 10.053,18.175 10.756,18.772 L12.324,20.098 Z"/>
</svg>
