<svg 
 xmlns="http://www.w3.org/2000/svg"
 xmlns:xlink="http://www.w3.org/1999/xlink"
 width="12px" height="15px">
<path fill-rule="evenodd"
 d="M10.114,9.342 L6.581,12.683 C6.421,12.835 6.180,12.911 5.979,12.911 C5.739,12.911 5.538,12.835 5.377,12.683 L1.845,9.342 C-0.443,7.215 -0.443,3.759 1.805,1.633 L1.845,1.595 C3.009,0.532 4.494,0.000 5.979,0.000 C7.464,0.000 8.990,0.532 10.114,1.595 C12.401,3.721 12.401,7.177 10.154,9.304 L10.114,9.342 ZM9.271,2.430 C8.388,1.595 7.224,1.139 5.979,1.139 C4.735,1.139 3.571,1.595 2.728,2.392 L2.688,2.430 C0.922,4.139 0.922,6.873 2.728,8.544 L5.979,11.620 L9.271,8.544 L9.311,8.544 C10.154,7.709 10.635,6.607 10.635,5.468 C10.635,4.329 10.154,3.228 9.271,2.430 ZM7.665,7.063 C7.224,7.519 6.622,7.747 5.979,7.747 C4.695,7.747 3.611,6.759 3.611,5.506 C3.611,4.291 4.655,3.266 5.979,3.266 C7.264,3.266 8.348,4.253 8.348,5.506 C8.348,6.114 8.107,6.645 7.665,7.063 ZM5.979,4.405 C5.337,4.405 4.815,4.899 4.815,5.506 C4.856,6.114 5.377,6.607 5.979,6.607 C6.622,6.607 7.143,6.114 7.143,5.506 C7.143,4.899 6.622,4.405 5.979,4.405 ZM2.206,10.937 C2.528,10.861 2.849,11.012 2.969,11.316 C3.049,11.620 2.889,11.924 2.568,12.038 C1.444,12.342 1.203,12.683 1.203,12.721 C1.203,13.025 2.849,13.861 5.979,13.861 C9.110,13.861 10.756,13.025 10.756,12.721 C10.756,12.683 10.515,12.304 9.391,12.000 C9.070,11.924 8.909,11.582 8.990,11.278 C9.070,10.975 9.431,10.823 9.752,10.899 C11.599,11.430 12.000,12.190 12.000,12.721 C11.960,14.278 8.869,15.000 5.979,15.000 C3.089,15.000 -0.001,14.278 -0.001,12.721 C-0.001,12.190 0.400,11.430 2.206,10.937 Z"/>
</svg>
