<svg 
 width="17px" height="15px">
<path fill-rule="evenodd"  fill="#bfbfbf"
 d="M11.696,14.999 L5.300,14.999 C4.551,14.999 3.853,14.604 3.478,13.967 L0.280,8.532 C-0.094,7.895 -0.094,7.104 0.280,6.467 L3.478,1.033 C3.853,0.396 4.551,-0.000 5.300,-0.000 L11.696,-0.000 C12.446,-0.000 13.144,0.396 13.519,1.033 L16.717,6.467 C17.091,7.104 17.091,7.895 16.717,8.532 L13.519,13.967 C13.144,14.604 12.446,14.999 11.696,14.999 L11.696,14.999 ZM5.300,1.244 C5.003,1.244 4.725,1.401 4.576,1.654 L1.378,7.089 C1.229,7.342 1.229,7.657 1.378,7.910 L4.576,13.345 C4.725,13.598 5.003,13.755 5.300,13.755 L11.696,13.755 C11.994,13.755 12.272,13.598 12.421,13.345 L15.619,7.910 C15.767,7.657 15.767,7.342 15.619,7.089 L12.421,1.654 C12.272,1.401 11.994,1.244 11.696,1.244 L5.300,1.244 Z"/>
</svg>
