<svg 
 xmlns="http://www.w3.org/2000/svg"
 xmlns:xlink="http://www.w3.org/1999/xlink"
 width="12px" height="12px">
<path fill-rule="evenodd"  fill="rgb(68, 136, 190)"
 d="M5.999,11.999 C2.685,11.999 -0.001,9.313 -0.001,5.999 C-0.001,2.686 2.685,-0.000 5.999,-0.000 C9.313,-0.000 11.999,2.686 11.999,5.999 C11.999,9.313 9.313,11.999 5.999,11.999 ZM5.999,1.052 C3.266,1.052 1.052,3.267 1.052,5.999 C1.052,8.732 3.266,10.947 5.999,10.947 C8.731,10.947 10.946,8.732 10.946,5.999 C10.946,3.267 8.731,1.052 5.999,1.052 ZM5.999,4.476 C5.557,4.476 5.199,4.118 5.199,3.676 C5.199,3.676 5.199,3.676 5.199,3.675 C5.199,3.234 5.557,2.876 5.999,2.876 C6.441,2.876 6.799,3.234 6.799,3.676 C6.799,4.118 6.441,4.476 5.999,4.476 ZM5.999,5.182 C6.364,5.182 6.546,5.365 6.546,5.730 L6.546,8.576 C6.546,8.941 6.364,9.123 5.999,9.123 C5.634,9.123 5.452,8.941 5.452,8.576 L5.452,5.730 C5.452,5.365 5.634,5.182 5.999,5.182 Z"/>
</svg>
