<svg 
    width="15px" height="15px">
    <path fill-rule="evenodd"  fill="#bfbfbf"
    d="M12.222,-0.000 L2.778,-0.000 C1.250,-0.000 -0.000,1.250 -0.000,2.778 L-0.000,12.222 C-0.000,13.750 1.250,15.000 2.778,15.000 L12.222,15.000 C13.750,15.000 14.999,13.750 14.999,12.222 L14.999,2.778 C14.999,1.250 13.750,-0.000 12.222,-0.000 ZM9.444,13.889 L2.778,13.889 C1.861,13.889 1.111,13.139 1.111,12.222 L1.111,2.778 C1.111,1.861 1.861,1.111 2.778,1.111 L12.222,1.111 C13.138,1.111 13.888,1.861 13.888,2.778 L13.888,9.444 L13.888,10.555 L13.888,12.222 C13.888,13.139 13.138,13.889 12.222,13.889 L10.555,13.889 "/>
</svg>