<svg 
 xmlns="http://www.w3.org/2000/svg"
 xmlns:xlink="http://www.w3.org/1999/xlink"
 width="16px" height="16px">
<path fill-rule="evenodd"
 d="M5.544,16.000 C5.320,16.000 5.164,15.871 5.040,15.747 C4.500,15.210 3.976,14.681 3.464,14.168 L3.432,14.136 C2.320,13.014 1.316,12.008 0.284,11.014 C0.096,10.825 -0.000,10.641 -0.000,10.465 C-0.000,10.288 0.096,10.104 0.284,9.916 C3.432,6.729 6.592,3.583 9.937,0.297 C10.077,0.160 10.261,0.000 10.461,0.000 C10.673,0.000 10.877,0.172 11.049,0.345 L15.650,4.926 C16.098,5.423 16.110,5.623 15.718,6.164 L6.212,15.639 C6.160,15.679 6.124,15.707 6.096,15.735 L6.068,15.759 C5.912,15.888 5.776,16.000 5.544,16.000 L5.544,16.000 ZM1.804,10.060 C1.544,10.373 1.584,10.645 1.948,11.006 L4.948,13.996 C5.128,14.176 5.292,14.296 5.492,14.296 C5.696,14.296 5.856,14.176 6.036,13.996 L13.982,6.080 C14.178,5.904 14.314,5.743 14.326,5.535 C14.338,5.323 14.218,5.142 14.034,4.934 L14.026,4.926 L11.037,1.948 C10.861,1.772 10.705,1.699 10.493,1.699 C10.229,1.699 10.025,1.836 9.829,2.148 C9.765,2.248 9.785,2.385 9.873,2.465 C9.885,2.473 9.909,2.505 9.953,2.545 L9.961,2.553 C10.229,2.826 11.049,3.663 11.449,3.980 C11.597,4.108 11.673,4.224 11.673,4.333 C11.649,4.381 11.541,4.529 11.325,4.729 C11.105,4.938 10.949,5.034 10.905,5.050 C10.809,5.046 10.705,4.970 10.593,4.830 C10.589,4.826 10.581,4.818 10.577,4.810 C8.933,3.198 8.933,3.198 8.873,3.182 C8.849,3.174 8.829,3.174 8.805,3.174 C8.725,3.174 8.653,3.210 8.609,3.275 L8.469,3.415 C8.197,3.683 8.149,3.731 8.141,3.739 C8.093,3.795 8.073,3.868 8.085,3.940 C8.093,4.000 8.125,4.056 8.173,4.092 C8.797,4.693 9.449,5.403 9.541,5.579 C9.497,5.667 9.289,5.900 9.045,6.132 L9.041,6.136 C8.961,6.216 8.885,6.256 8.809,6.256 C8.733,6.256 8.661,6.208 8.593,6.120 C8.585,6.112 7.373,4.886 7.245,4.846 C7.217,4.838 7.193,4.834 7.165,4.834 C7.125,4.834 7.085,4.842 7.053,4.862 C6.989,4.894 6.544,5.347 6.528,5.371 C6.493,5.427 6.485,5.495 6.496,5.559 C6.508,5.603 6.508,5.611 7.229,6.325 C7.393,6.489 7.937,7.022 8.049,7.110 C8.469,7.483 8.329,7.643 8.073,7.936 C7.925,8.092 7.705,8.260 7.609,8.260 C7.449,8.260 7.305,8.128 7.145,7.968 C6.981,7.783 6.481,7.278 6.148,6.938 C6.008,6.794 5.896,6.681 5.848,6.629 C5.696,6.469 5.696,6.469 5.676,6.457 C5.632,6.425 5.584,6.409 5.528,6.409 C5.472,6.409 5.420,6.429 5.376,6.461 C5.372,6.465 4.856,6.902 4.816,7.070 C4.804,7.110 4.808,7.154 4.816,7.194 C4.860,7.351 5.992,8.397 6.004,8.405 C6.004,8.405 6.008,8.409 6.012,8.409 C6.148,8.505 6.220,8.597 6.232,8.681 C6.228,8.725 6.136,8.898 5.932,9.122 C5.728,9.347 5.584,9.431 5.532,9.443 C5.356,9.367 4.508,8.581 4.224,8.321 C3.964,8.080 3.964,8.080 3.932,8.072 C3.908,8.064 3.884,8.060 3.860,8.060 C3.812,8.060 3.764,8.076 3.724,8.100 C3.720,8.104 3.212,8.589 3.164,8.677 C3.128,8.753 3.132,8.846 3.176,8.918 C3.196,8.950 3.220,8.974 3.252,8.994 C3.360,9.102 3.904,9.643 4.320,10.060 L4.552,10.292 C4.768,10.505 4.964,10.721 4.964,10.845 C4.964,10.970 4.764,11.182 4.552,11.395 C4.472,11.475 4.372,11.567 4.268,11.567 C4.180,11.567 4.104,11.507 3.996,11.399 C3.920,11.318 2.648,9.984 2.352,9.759 C2.340,9.747 2.328,9.739 2.312,9.731 C2.284,9.719 2.252,9.715 2.220,9.715 C2.204,9.715 2.188,9.715 2.172,9.719 C2.076,9.751 1.980,9.815 1.804,10.060 L1.804,10.060 Z"/>
</svg>
