<svg 
 xmlns="http://www.w3.org/2000/svg"
 xmlns:xlink="http://www.w3.org/1999/xlink"
 width="18px" height="12px">
<path fill-rule="evenodd" d="M12.142,12.000 L1.429,12.000 C0.640,12.000 -0.000,11.400 -0.000,10.657 L-0.000,1.342 C-0.000,0.601 0.639,-0.000 1.429,-0.000 L12.142,-0.000 C12.930,-0.000 13.571,0.600 13.571,1.342 L13.571,10.657 C13.582,11.390 12.932,12.000 12.142,12.000 ZM1.429,1.117 C1.298,1.117 1.189,1.220 1.189,1.342 L1.189,10.657 C1.189,10.780 1.298,10.882 1.429,10.882 L12.142,10.882 C12.272,10.882 12.382,10.780 12.382,10.657 L12.382,1.342 C12.382,1.220 12.272,1.117 12.142,1.117 L1.429,1.117 ZM5.636,8.414 C5.306,8.414 5.036,8.160 5.036,7.860 L5.036,4.141 C5.036,3.831 5.306,3.587 5.636,3.587 C5.745,3.587 5.856,3.616 5.955,3.672 L9.093,5.531 C9.373,5.700 9.452,6.038 9.272,6.300 C9.223,6.366 9.163,6.431 9.093,6.469 L5.955,8.329 C5.865,8.386 5.747,8.414 5.636,8.414 ZM6.236,5.146 L6.236,6.845 L7.665,6.000 L6.236,5.146 ZM17.389,10.770 C17.289,10.770 17.190,10.751 17.109,10.703 L12.701,8.470 C12.412,8.319 12.300,7.981 12.461,7.719 C12.622,7.447 12.982,7.353 13.271,7.494 L16.798,9.278 L16.798,2.722 L13.271,4.508 C12.982,4.648 12.622,4.546 12.472,4.272 C12.322,4.008 12.431,3.680 12.712,3.531 L17.119,1.296 C17.409,1.145 17.769,1.250 17.929,1.522 C17.979,1.606 18.000,1.691 18.000,1.785 L18.000,10.218 C18.000,10.415 17.891,10.594 17.711,10.697 C17.598,10.742 17.488,10.770 17.389,10.770 L17.389,10.770 Z"/>
</svg>
