<svg 
 xmlns="http://www.w3.org/2000/svg"
 xmlns:xlink="http://www.w3.org/1999/xlink"
 width="14px" height="14px">
<path fill-rule="evenodd"
 d="M5.781,4.496 L9.880,6.791 C9.913,6.811 9.940,6.837 9.960,6.869 C10.031,6.982 9.996,7.130 9.880,7.199 L5.781,9.503 C5.744,9.524 5.701,9.535 5.658,9.535 C5.522,9.535 5.412,9.427 5.412,9.295 L5.412,4.704 C5.412,4.662 5.424,4.620 5.445,4.584 C5.513,4.469 5.664,4.430 5.781,4.496 ZM9.161,13.616 C5.416,14.875 1.333,12.933 0.043,9.279 C0.037,9.265 0.032,9.250 0.027,9.236 C-0.072,8.919 0.111,8.584 0.436,8.487 C0.439,8.486 0.443,8.485 0.446,8.484 C0.763,8.379 1.108,8.545 1.215,8.855 C1.430,9.464 1.747,10.033 2.153,10.540 C4.175,13.063 7.910,13.509 10.496,11.537 C13.082,9.564 13.539,5.920 11.517,3.397 C9.496,0.874 5.760,0.428 3.174,2.400 L3.994,3.200 C4.017,3.222 4.034,3.249 4.041,3.279 C4.062,3.365 4.008,3.451 3.920,3.472 L0.494,4.368 C0.469,4.374 0.444,4.374 0.419,4.368 C0.331,4.348 0.276,4.262 0.297,4.176 L1.215,0.801 C1.231,0.768 1.258,0.742 1.291,0.727 C1.373,0.688 1.471,0.721 1.510,0.801 L2.330,1.601 C3.602,0.566 5.207,0.000 6.863,0.001 C9.910,0.017 12.614,1.909 13.607,4.720 C14.897,8.374 12.907,12.357 9.161,13.616 Z"/>
</svg>
