<svg xmlns="http://www.w3.org/2000/svg" width="13.023" height="13" viewBox="0 0 13.023 13">
  <path id="地址" d="M-8292.143-1761.837a.867.867,0,0,1-.731-.411.869.869,0,0,1-.034-.839l.027-.049.881-1.508a.437.437,0,0,1,.578-.163.435.435,0,0,1,.182.57l-.016.03-.881,1.508,10.273.047-.927-1.591a.431.431,0,0,1,.157-.589.428.428,0,0,1,.57.127l.018.028.926,1.589a.861.861,0,0,1,.017.843.86.86,0,0,1-.708.453l-.059,0Zm4.418-1.837-2.8-3.258-.011-.013a.328.328,0,0,1-.049-.063l-.021-.032-.027-.044-.045-.066a4.181,4.181,0,0,1-.725-2.358,4.347,4.347,0,0,1,4.4-4.283,4.338,4.338,0,0,1,4.391,4.29,4.2,4.2,0,0,1-.781,2.419s-.016.028-.024.042l-.021.032a.66.66,0,0,1-.074.093l.019-.019-2.784,3.258a.949.949,0,0,1-.725.334A.951.951,0,0,1-8287.725-1763.674Zm-2.723-5.832a3.21,3.21,0,0,0,.605,1.885l.014.021.025.045,2.8,3.258,2.783-3.258.04-.066a3.287,3.287,0,0,0,.615-1.885,3.384,3.384,0,0,0-3.437-3.33A3.393,3.393,0,0,0-8290.447-1769.506Zm1.727.167a1.723,1.723,0,0,1,1.723-1.724,1.724,1.724,0,0,1,1.723,1.724,1.725,1.725,0,0,1-1.723,1.727A1.724,1.724,0,0,1-8288.721-1769.339Zm.857,0a.865.865,0,0,0,.861.865.863.863,0,0,0,.865-.862.864.864,0,0,0-.861-.864A.864.864,0,0,0-8287.863-1769.339Z" transform="translate(8293.511 1774.291)" fill="#a4fcff" stroke="rgba(0,0,0,0)" stroke-miterlimit="10" stroke-width="1"/>
</svg>
