<svg id="设备" xmlns="http://www.w3.org/2000/svg" width="12" height="12.002" viewBox="0 0 12 12.002">
  <path id="路径_66128" data-name="路径 66128" d="M134.139,140a4.688,4.688,0,0,1-3.337-1.382l-1.282-1.282a4.724,4.724,0,0,1,0-6.674l1.282-1.282a4.719,4.719,0,0,1,6.674,0l1.282,1.282a4.719,4.719,0,0,1,0,6.674l-1.282,1.282A4.688,4.688,0,0,1,134.139,140Zm0-11a3.7,3.7,0,0,0-2.63,1.089l-1.282,1.282a3.724,3.724,0,0,0,0,5.26l1.282,1.282a3.719,3.719,0,0,0,5.26,0l1.282-1.282a3.72,3.72,0,0,0,0-5.26l-1.282-1.282A3.7,3.7,0,0,0,134.139,129Z" transform="translate(-128.14 -128)" fill="#569aff"/>
  <path id="路径_66129" data-name="路径 66129" d="M355.469,352.991h-1.983a.5.5,0,1,1,0-.991h1.983a.5.5,0,1,1,0,.991Zm.991,1.983H352.5a.5.5,0,0,1,0-.991h3.965a.5.5,0,0,1,0,.991Zm-.99,1.983h-1.983a.5.5,0,0,1,0-.991h1.983a.5.5,0,0,1,0,.991Z" transform="translate(-348.479 -348.477)" fill="#569aff"/>
</svg>
