<svg id="时间" xmlns="http://www.w3.org/2000/svg" width="12" height="12" viewBox="0 0 12 12">
  <path id="路径_66126" data-name="路径 66126" d="M70.6,64.2a6,6,0,1,0,6,6A6,6,0,0,0,70.6,64.2Zm3.561,9.561a5.018,5.018,0,1,1,1.079-1.6A5.005,5.005,0,0,1,74.161,73.761Z" transform="translate(-64.6 -64.2)" fill="#47cdff"/>
  <path id="路径_66127" data-name="路径 66127" d="M477.156,208.985v-3.231a.534.534,0,0,0-1.056,0v3.412a.4.4,0,0,0,.085.247.459.459,0,0,0,.082.092l2.806,2.413a.595.595,0,0,0,.748,0,.41.41,0,0,0,0-.642Z" transform="translate(-470.812 -203.25)" fill="#47cdff"/>
</svg>
