<svg xmlns="http://www.w3.org/2000/svg" width="12" height="12" viewBox="0 0 12 12">
  <g id="车牌" transform="translate(-840 -499)">
    <rect id="矩形_22721" data-name="矩形 22721" width="12" height="12" transform="translate(840 499)" fill="#ff6b6b" opacity="0"/>
    <path id="联合_4640" data-name="联合 4640" d="M-8283.544-1763.1a.481.481,0,0,1-.47-.447.488.488,0,0,1,.376-.524l.033-.007.061,0h1.493v-.76a.482.482,0,0,1,.475-.489.475.475,0,0,1,.464.405l0,.029,0,.051v.826a.9.9,0,0,1-.779.914l-.079,0Zm-7.5,0-.073,0a.9.9,0,0,1-.779-.828v-.927l0-.064a.478.478,0,0,1,.468-.405.478.478,0,0,1,.467.405l0,.024,0,.059v.76h1.528l.055.009a.483.483,0,0,1,.381.48.487.487,0,0,1-.381.482l-.072.009Zm.134-3.086a.988.988,0,0,1-.988-.986v-2.646a.988.988,0,0,1,.988-.986h8.814a.988.988,0,0,1,.986.986v2.646a.988.988,0,0,1-.986.986Zm-.161-3.632v2.646a.16.16,0,0,0,.161.158h8.814a.16.16,0,0,0,.158-.158v-2.646a.16.16,0,0,0-.158-.158h-8.814A.161.161,0,0,0-8291.067-1769.822Zm7.108,1.323a.545.545,0,0,1,.544-.546.546.546,0,0,1,.546.546.546.546,0,0,1-.546.546A.545.545,0,0,1-8283.959-1768.5Zm-6.172,0a.545.545,0,0,1,.545-.546.548.548,0,0,1,.549.546.548.548,0,0,1-.549.546A.545.545,0,0,1-8290.131-1768.5Zm8.088-3.575,0-.024-.006-.059,0-.757h-1.519l-.062-.009a.485.485,0,0,1-.383-.48.485.485,0,0,1,.383-.482l.024,0,.064,0h1.587l.067,0a.9.9,0,0,1,.782.826l0,.931-.007.059a.474.474,0,0,1-.464.407A.475.475,0,0,1-8282.043-1772.074Zm-9.378.407a.48.48,0,0,1-.468-.407l0-.024,0-.059v-.819a.9.9,0,0,1,.774-.911l.021,0,.072,0h1.572a.474.474,0,0,1,.471.449.483.483,0,0,1-.383.522l-.026,0-.062,0h-1.493v.757a.484.484,0,0,1-.429.489l-.018,0Z" transform="translate(9132.5 2273.499)" fill="#69dcc1"/>
  </g>
</svg>
