<svg xmlns="http://www.w3.org/2000/svg" width="16" height="15.998" viewBox="0 0 16 15.998"><defs><style>.a{fill:#b3b3b3;}</style></defs><path class="a" d="M6408.136,10925.329h-6.271a2.508,2.508,0,1,1-3.25-3.2v-6.266a2.512,2.512,0,1,1,3.218-3.282h6.335a2.5,2.5,0,0,1,4.832.934,2.529,2.529,0,0,1-1.659,2.365v6.233a2.514,2.514,0,1,1-3.2,3.215Zm1.447-.851a.91.91,0,1,0,.907-.915A.913.913,0,0,0,6409.583,10924.479Zm-10.986,0a.908.908,0,1,0,.909-.915A.913.913,0,0,0,6398.6,10924.479Zm1.634-8.555v6.147a2.508,2.508,0,0,1,1.653,1.618h6.23a2.517,2.517,0,0,1,1.616-1.605v-6.175a2.525,2.525,0,0,1-1.645-1.706h-6.166A2.535,2.535,0,0,1,6400.231,10915.924Zm9.353-2.414a.91.91,0,1,0,.907-.914A.912.912,0,0,0,6409.583,10913.51Zm-10.986,0a.912.912,0,0,0,.909.916.91.91,0,0,0,.907-.916.908.908,0,1,0-1.816,0Z" transform="translate(-6397 -10911.001)"/></svg>