<svg 
 xmlns="http://www.w3.org/2000/svg"
 xmlns:xlink="http://www.w3.org/1999/xlink"
 width="14px" height="14px">
<path fill-rule="evenodd"  
 d="M12.950,9.870 C12.600,9.660 12.180,9.800 11.970,10.150 C11.130,11.620 9.170,12.600 7.000,12.600 C4.970,12.600 3.220,11.760 2.240,10.500 L3.500,10.500 C3.850,10.500 4.200,10.150 4.200,9.800 C4.200,9.450 3.850,9.100 3.500,9.100 L0.700,9.100 C0.350,9.100 -0.000,9.450 -0.000,9.800 L-0.000,12.600 C-0.000,12.950 0.350,13.300 0.700,13.300 C1.050,13.300 1.400,12.950 1.400,12.600 L1.400,11.690 C2.660,13.090 4.760,14.000 7.000,14.000 C9.660,14.000 12.110,12.740 13.230,10.850 C13.370,10.500 13.300,10.080 12.950,9.870 ZM13.300,0.560 C12.950,0.560 12.600,0.910 12.600,1.260 L12.600,2.310 C11.340,0.910 9.240,-0.000 7.000,-0.000 C4.270,-0.000 1.890,1.260 0.770,3.150 C0.560,3.500 0.700,3.920 1.050,4.130 C1.120,4.200 1.260,4.200 1.400,4.200 C1.610,4.200 1.890,4.060 2.030,3.850 C2.800,2.380 4.760,1.400 7.000,1.400 C8.960,1.400 10.710,2.170 11.690,3.360 L10.500,3.360 C10.150,3.360 9.800,3.710 9.800,4.060 C9.800,4.410 10.150,4.760 10.500,4.760 L13.300,4.760 C13.650,4.760 14.000,4.410 14.000,4.060 L14.000,1.260 C14.000,0.910 13.650,0.560 13.300,0.560 Z"/>
</svg>
