<svg 
 xmlns="http://www.w3.org/2000/svg"
 xmlns:xlink="http://www.w3.org/1999/xlink"
 width="15px" height="15px">
<path fill-rule="evenodd"  
 d="M12.187,2.803 L12.187,12.738 C12.187,14.016 11.250,15.000 10.016,15.000 L4.984,15.000 C3.799,15.000 2.813,14.016 2.813,12.738 L2.813,2.263 C2.813,0.984 3.750,0.000 4.984,0.000 L9.967,0.000 C11.151,0.000 12.187,0.984 12.187,2.263 L12.187,2.803 ZM13.125,2.803 L15.000,2.803 C15.000,4.033 14.210,5.066 13.125,5.459 L13.125,2.803 ZM13.125,8.951 L15.000,8.951 C15.000,10.181 14.210,11.213 13.125,11.607 L13.125,8.951 ZM1.875,5.508 C0.738,5.094 -0.014,4.010 0.000,2.803 L1.875,2.803 L1.875,5.508 ZM1.875,11.607 C0.752,11.203 0.003,10.141 0.000,8.951 L1.875,8.951 L1.875,11.607 ZM4.934,1.426 C4.540,1.426 4.243,1.771 4.243,2.164 L4.243,12.886 C4.243,13.328 4.589,13.623 4.934,13.623 L10.016,13.623 C10.411,13.623 10.707,13.279 10.707,12.886 L10.707,2.164 C10.707,1.722 10.361,1.426 10.016,1.426 L4.934,1.426 L4.934,1.426 ZM7.499,6.591 C6.464,6.591 5.624,5.754 5.624,4.722 C5.624,3.690 6.464,2.853 7.499,2.853 C8.535,2.853 9.374,3.690 9.374,4.722 C9.374,5.754 8.535,6.591 7.499,6.591 ZM7.499,12.246 C6.829,12.246 6.210,11.890 5.875,11.311 C5.541,10.734 5.541,10.021 5.875,9.443 C6.210,8.864 6.829,8.508 7.499,8.508 C8.169,8.508 8.788,8.865 9.123,9.443 C9.458,10.021 9.458,10.734 9.123,11.311 C8.788,11.890 8.169,12.246 7.499,12.246 Z"/>
</svg>
