<svg 
 xmlns="http://www.w3.org/2000/svg"
 xmlns:xlink="http://www.w3.org/1999/xlink"
 width="18px" height="19px">
<path fill-rule="evenodd" 
 d="M17.794,11.894 L14.638,15.069 C14.638,15.069 14.638,15.069 14.638,15.069 C14.392,15.315 13.995,15.315 13.750,15.069 L11.328,12.632 C11.270,12.569 11.270,12.472 11.328,12.410 L12.117,11.616 C12.145,11.584 12.185,11.567 12.227,11.568 C12.269,11.568 12.309,11.586 12.338,11.616 L14.204,13.489 L16.244,11.433 L14.382,9.560 C14.381,9.560 14.380,9.559 14.380,9.559 C14.319,9.496 14.319,9.396 14.382,9.334 L15.171,8.540 C15.172,8.539 15.173,8.538 15.174,8.537 C15.235,8.477 15.333,8.479 15.392,8.540 L17.814,10.977 C17.823,10.985 17.831,10.994 17.838,11.003 C18.071,11.261 18.051,11.660 17.794,11.894 ZM8.917,13.807 C9.056,14.948 8.830,16.104 8.274,17.109 C8.247,17.155 8.214,17.198 8.176,17.236 C7.931,17.485 7.531,17.487 7.284,17.239 L0.860,10.783 C0.820,10.742 0.785,10.697 0.757,10.647 C0.585,10.345 0.690,9.959 0.991,9.787 C1.986,9.223 3.135,8.995 4.269,9.136 L11.616,1.750 C11.616,1.750 11.616,1.750 11.616,1.750 C11.862,1.503 12.259,1.504 12.504,1.750 L16.260,5.524 C16.503,5.773 16.503,6.172 16.260,6.421 L8.917,13.807 ZM3.610,10.596 C3.359,10.595 3.107,10.620 2.861,10.671 L7.390,15.227 C7.439,14.980 7.464,14.727 7.464,14.475 C7.465,12.333 5.739,10.597 3.610,10.596 ZM12.062,3.437 L6.242,9.267 L8.787,11.814 L14.595,5.985 L12.062,3.437 ZM8.724,3.627 C8.660,3.686 8.562,3.686 8.499,3.627 L6.637,1.750 L4.601,3.794 L6.463,5.671 C6.464,5.672 6.465,5.673 6.466,5.675 C6.526,5.736 6.524,5.834 6.463,5.893 L5.674,6.687 C5.673,6.688 5.672,6.689 5.671,6.690 C5.609,6.750 5.512,6.748 5.453,6.687 L3.034,4.254 C3.034,4.254 3.034,4.254 3.034,4.254 C2.789,4.007 2.789,3.608 3.034,3.361 L6.191,0.187 C6.309,0.067 6.469,-0.000 6.637,0.000 C6.802,0.001 6.959,0.068 7.075,0.187 L9.513,2.607 C9.513,2.608 9.514,2.608 9.515,2.609 C9.576,2.672 9.575,2.772 9.513,2.834 L8.724,3.627 ZM1.010,13.495 L4.476,16.981 C4.555,17.061 4.555,17.141 4.476,17.222 L3.764,17.937 C3.684,18.018 3.604,18.018 3.524,17.937 L0.059,14.452 C-0.021,14.372 -0.021,14.291 0.059,14.211 L0.771,13.495 C0.851,13.415 0.930,13.415 1.010,13.495 Z"/>
</svg>
