<svg xmlns="http://www.w3.org/2000/svg" width="16.303" height="16.297" viewBox="0 0 16.303 16.297"><path class="a" d="M-17837.352-2614.7a2.653,2.653,0,0,1-2.65-2.65v-11a2.652,2.652,0,0,1,2.65-2.646h11a2.65,2.65,0,0,1,2.652,2.646v4a.65.65,0,0,1-.65.649.649.649,0,0,1-.648-.649v-4a1.353,1.353,0,0,0-1.354-1.348h-11a1.35,1.35,0,0,0-1.348,1.348v11a1.351,1.351,0,0,0,1.348,1.352h4a.649.649,0,0,1,.648.649.649.649,0,0,1-.648.649Zm12.254-.452-5.793-5.8v3.532a.666.666,0,0,1-.668.663.665.665,0,0,1-.662-.663v-5.14a.667.667,0,0,1,.662-.663h5.141a.664.664,0,0,1,.662.663.665.665,0,0,1-.662.667h-3.533l5.8,5.793a.67.67,0,0,1,0,.945.672.672,0,0,1-.475.192A.67.67,0,0,1-17825.1-2615.153Z" transform="translate(17840.002 2630.998)"/></svg>
