<svg 
 xmlns="http://www.w3.org/2000/svg"
 xmlns:xlink="http://www.w3.org/1999/xlink"
 width="18px" height="18px">
<path fill-rule="evenodd"
 d="M6.749,13.492 C3.019,13.492 -0.000,10.476 -0.000,6.751 C-0.000,3.026 3.019,-0.000 6.749,-0.000 C10.479,-0.000 13.498,3.016 13.498,6.741 C13.498,7.270 13.064,7.704 12.534,7.704 C12.004,7.704 11.570,7.270 11.570,6.741 C11.570,4.074 9.408,1.926 6.749,1.926 C4.079,1.926 1.928,4.085 1.928,6.741 C1.928,9.407 4.090,11.556 6.749,11.556 C7.279,11.556 7.713,11.989 7.713,12.519 C7.724,13.058 7.289,13.492 6.749,13.492 L6.749,13.492 ZM11.973,17.989 C11.570,17.989 11.210,17.757 11.040,17.397 L6.844,8.201 C6.611,7.682 6.834,7.079 7.342,6.847 C7.607,6.720 7.925,6.720 8.190,6.847 L17.397,11.037 C17.917,11.270 18.139,11.873 17.906,12.392 C17.768,12.688 17.503,12.899 17.186,12.974 L13.731,13.746 L12.958,17.206 C12.863,17.640 12.502,17.958 12.068,18.000 L11.973,18.000 L11.973,17.989 L11.973,17.989 ZM9.288,9.280 L11.721,14.638 L12.073,13.110 C12.191,12.589 12.593,12.169 13.130,12.051 L14.657,11.699 L9.288,9.280 Z"/>
</svg>
