<svg xmlns="http://www.w3.org/2000/svg" xmlns:xlink="http://www.w3.org/1999/xlink" fill="none" version="1.1" width="16" height="16" viewBox="0 0 16 16"><g><path d="M7.999,6.11511e-8L8,0C12.418,-0.000840108,16,3.58041,16,7.9995C16.0003,12.418,12.4185,16,8.0005,16C3.58203,16.0003,0,12.4185,0,8.0005C-0.000276056,3.58236,3.58099,0.000540435,7.999,6.11511e-8ZM12,5.86667C12,4.83573,11.1643,4,10.1333,4L5.86667,4C4.83573,4,4,4.83573,4,5.86667L4,10.1333C4,11.1643,4.83573,12,5.86667,12L10.1333,12C11.1643,12,12,11.1643,12,10.1333L12,5.86667ZM5.6,5.86667C5.6,5.71963,5.71963,5.6,5.86667,5.6L10.1333,5.6C10.2804,5.6,10.4,5.71963,10.4,5.86667L10.4,10.1333C10.4,10.2804,10.2804,10.4,10.1333,10.4L5.86667,10.4C5.71963,10.4,5.6,10.2804,5.6,10.1333L5.6,5.86667Z" fill-rule="evenodd" fill="#0090FF" fill-opacity="1"/></g></svg>