<svg width="20" height="20" viewBox="0 0 20 20" fill="none" xmlns="http://www.w3.org/2000/svg">
<g id="Group 2134625728">
<path id="Vector" d="M19.2504 6.5629C19.0132 6.38708 18.7371 6.26838 18.4445 6.21637C18.1519 6.16436 17.8509 6.18049 17.5658 6.26346L17.5335 6.27258L15.1507 7.25219V6.04529C15.1498 5.23791 14.8222 4.46386 14.2399 3.89296C13.6576 3.32206 12.868 3.00092 12.0445 3H3.10621C2.28268 3.00092 1.49315 3.32206 0.910826 3.89296C0.328501 4.46386 0.000938632 5.23791 0 6.04529V14.9547C0.000938632 15.7621 0.328501 16.5361 0.910826 17.107C1.49315 17.6779 2.28268 17.9991 3.10621 18H12.0436C12.8671 17.9991 13.6567 17.6779 14.239 17.107C14.8213 16.5361 15.1489 15.7621 15.1498 14.9547V13.7461L17.5326 14.7257L17.5649 14.7348C17.7413 14.7855 17.9242 14.8114 18.108 14.8117C18.5203 14.8114 18.9213 14.6795 19.2504 14.4358C19.4835 14.2666 19.6727 14.046 19.8029 13.7919C19.9331 13.5378 20.0006 13.2573 20 12.9729V8.02535C20.0007 7.74104 19.9332 7.46055 19.803 7.20651C19.6728 6.95247 19.4835 6.732 19.2504 6.5629ZM7.49889 6.87495C7.49889 7.01327 7.44284 7.14592 7.34308 7.24372C7.24332 7.34153 7.10801 7.39648 6.96693 7.39648H4.11783C3.97674 7.39648 3.84144 7.34153 3.74167 7.24372C3.64191 7.14592 3.58587 7.01327 3.58587 6.87495V6.66243C3.58587 6.52411 3.64191 6.39146 3.74167 6.29365C3.84144 6.19585 3.97674 6.1409 4.11783 6.1409H6.96915C7.11023 6.1409 7.24554 6.19585 7.3453 6.29365C7.44506 6.39146 7.50111 6.52411 7.50111 6.66243L7.49889 6.87495Z" fill="url(#paint0_linear_19_703)"/>
</g>
<defs>
<linearGradient id="paint0_linear_19_703" x1="20.0001" y1="18.0028" x2="20.0001" y2="3.00267" gradientUnits="userSpaceOnUse">
<stop stop-color="#44B6FF"/>
<stop offset="1" stop-color="white"/>
</linearGradient>
</defs>
</svg>
