<svg width="20" height="18" viewBox="0 0 20 18" fill="none" xmlns="http://www.w3.org/2000/svg">
<g id="Group 2134625729">
<path id="Vector" d="M18.3601 7.7561H17.4688V13.4268C17.4688 13.7927 17.1836 14.0488 16.8627 14.0488H8.5205V14.9268C8.5205 15.8415 9.23351 16.5732 10.1248 16.5732H14.0463L15.2941 17.8537C15.4011 17.9634 15.5437 18 15.6863 18C15.8289 18 15.9715 17.9634 16.0784 17.8537L17.3262 16.5732H18.3957C19.287 16.5732 20 15.8415 20 14.9268V9.40245C19.9643 8.48781 19.2513 7.7561 18.3601 7.7561Z" fill="url(#paint0_linear_18_277)"/>
<path id="Vector_2" d="M14.5811 0H1.60428C0.713013 0 0 0.731708 0 1.64634V11.0854C0 12 0.713013 12.7317 1.60428 12.7317H2.6738L4.42068 14.5244C4.52763 14.6342 4.67023 14.6707 4.81283 14.6707C4.95544 14.6707 5.09804 14.6342 5.20499 14.5244L6.95187 12.7317H15.7219C16.0071 12.7317 16.2567 12.4756 16.2567 12.1829V1.64634C16.1854 0.731708 15.4724 0 14.5811 0ZM5.02674 7.09757H4.56328C4.17112 7.09757 3.85027 6.7683 3.85027 6.36586C3.85027 5.96342 4.17112 5.63415 4.56328 5.63415H5.02674C5.4189 5.63415 5.73975 5.96342 5.73975 6.36586C5.73975 6.7683 5.4189 7.09757 5.02674 7.09757ZM8.34225 7.09757H7.84314C7.45098 7.09757 7.13013 6.7683 7.13013 6.36586C7.13013 5.96342 7.45098 5.63415 7.84314 5.63415H8.3066C8.69875 5.63415 9.01961 5.96342 9.01961 6.36586C9.01961 6.7683 8.7344 7.09757 8.34225 7.09757ZM11.6221 7.09757H11.1586C10.7665 7.09757 10.4456 6.7683 10.4456 6.36586C10.4456 5.96342 10.7665 5.63415 11.1586 5.63415H11.6221C12.0143 5.63415 12.3351 5.96342 12.3351 6.36586C12.3351 6.7683 12.0143 7.09757 11.6221 7.09757Z" fill="url(#paint1_linear_18_277)"/>
</g>
<defs>
<linearGradient id="paint0_linear_18_277" x1="20" y1="18.0019" x2="20" y2="7.75793" gradientUnits="userSpaceOnUse">
<stop stop-color="#44B6FF"/>
<stop offset="1" stop-color="white"/>
</linearGradient>
<linearGradient id="paint1_linear_18_277" x1="16.2567" y1="14.6735" x2="16.2567" y2="0.00261112" gradientUnits="userSpaceOnUse">
<stop stop-color="#44B6FF"/>
<stop offset="1" stop-color="white"/>
</linearGradient>
</defs>
</svg>
