<svg xmlns="http://www.w3.org/2000/svg" width="18" height="18" viewBox="0 0 18 18"><defs><style>.a{opacity:0;}.b{fill:#fff;stroke:#707070;}.d{stroke:none;}.e{fill:none;}</style></defs><g transform="translate(-1624 -183)"><g class="a" transform="translate(31.127 -159.873)"><g class="b" transform="translate(1592.873 342.873)"><rect class="d" width="18" height="18"/><rect class="e" x="0.5" y="0.5" width="17" height="17"/></g></g><g transform="translate(1625 184)"><path class="c" d="M88.185,76.527H83.644a2.289,2.289,0,0,1-2.28-2.286V62.813a2.3,2.3,0,0,1,2.28-2.286h9.61a2.289,2.289,0,0,1,2.28,2.286v4.554a.57.57,0,0,1-1.14,0V62.813a1.145,1.145,0,0,0-1.14-1.143h-9.61a1.145,1.145,0,0,0-1.14,1.143V74.241a1.145,1.145,0,0,0,1.14,1.143h4.542a.571.571,0,0,1,0,1.143Z" transform="translate(-81.364 -60.527)"/><path class="c" d="M236.9,254.761a3.633,3.633,0,1,1,3.633-3.633,3.633,3.633,0,0,1-3.633,3.633Zm0-6.073a2.44,2.44,0,1,0,2.44,2.44,2.44,2.44,0,0,0-2.44-2.44Zm-1.666-4.9H229.3a.592.592,0,1,1,0-1.184h5.928a.592.592,0,0,1,0,1.184Zm-2.841,2.941H229.3a.592.592,0,1,1,0-1.184h3.087a.592.592,0,0,1,0,1.184Z" transform="translate(-226.554 -239.835)"/><path class="c" d="M789.311,809l-1.666-1.666a.593.593,0,0,1,.838-.838l1.666,1.666a.593.593,0,1,1-.838.838Z" transform="translate(-775.06 -793.21)"/></g></g></svg>