<svg xmlns="http://www.w3.org/2000/svg" width="18" height="18" viewBox="0 0 18 18"><defs><style>.a{fill:none;}</style></defs><g transform="translate(-1570 -2520)"><rect class="a" width="18" height="18" transform="translate(1570 2520)"/><path class="b" d="M129.439,88.621h-.822a.617.617,0,1,1,0-1.233H142.18a.617.617,0,1,1,0,1.233H130.672V99.513a1.028,1.028,0,0,0,1.028,1.028h7.4a1.028,1.028,0,0,0,1.028-1.028V90.471a.617.617,0,0,1,1.233,0v9.042a2.261,2.261,0,0,1-2.261,2.261h-7.4a2.261,2.261,0,0,1-2.261-2.261Zm4.316-2.055a.617.617,0,1,1,0-1.233h3.288a.617.617,0,1,1,0,1.233Zm-.617,5.549a.617.617,0,1,1,1.233,0v4.932a.617.617,0,1,1-1.233,0Zm3.288,0a.617.617,0,1,1,1.233,0v4.932a.617.617,0,1,1-1.233,0Z" transform="translate(1443.814 2435.729)"/></g></svg>