<svg xmlns="http://www.w3.org/2000/svg" width="18" height="18" viewBox="0 0 18 18"><defs><style>.a{fill:none;}</style></defs><g transform="translate(-1502 -2520)"><rect class="a" width="18" height="18" transform="translate(1502 2520)"/><g transform="translate(1490.662 2508.662)"><path class="b" d="M20.338,11.907a8.431,8.431,0,1,0,8.431,8.431A8.436,8.436,0,0,0,20.338,11.907Zm0,15.846a7.415,7.415,0,1,1,7.415-7.415A7.43,7.43,0,0,1,20.338,27.753Z" transform="translate(0 0)"/><path class="b" d="M363.64,270.078l-5.737-3.307a.5.5,0,0,0-.457,0,.454.454,0,0,0-.237.4V273.8a.5.5,0,0,0,.219.4.487.487,0,0,0,.219.055.434.434,0,0,0,.219-.055L363.6,270.9a.438.438,0,0,0,.219-.4A.459.459,0,0,0,363.64,270.078ZM358.122,273v-5.042l4.385,2.521Z" transform="translate(-338.952 -250.028)"/></g></g></svg>