<svg xmlns="http://www.w3.org/2000/svg" width="18" height="18" viewBox="0 0 18 18"><defs><style>.a{fill:none;}</style></defs><g transform="translate(-1533 -2521)"><rect class="a" width="18" height="18" transform="translate(1533 2521)"/><g transform="translate(1397.509 2397.587)"><path class="b" d="M484.96,133.444a.678.678,0,0,1-.59-.74V124.94a.6.6,0,1,1,1.179,0V132.7A.678.678,0,0,1,484.96,133.444Z" transform="translate(-340.148 0)"/><path class="b" d="M147.612,188.4a.582.582,0,0,0,.312.519,6.826,6.826,0,1,1-6.223,0,.581.581,0,0,0,.31-.519.589.589,0,0,0-.851-.53,8.006,8.006,0,1,0,7.308,0A.59.59,0,0,0,147.612,188.4Z" transform="translate(0 -62.249)"/></g></g></svg>