<svg width="14" height="14" viewBox="0 0 14 14" fill="none" xmlns="http://www.w3.org/2000/svg">
<g id="&#230;&#132;&#159;&#229;&#143;&#185;&#229;&#143;&#183; 1" clip-path="url(#clip0_24_2003)">
<path id="Vector" d="M7.00005 0.777832C3.57783 0.777832 0.777832 3.57783 0.777832 7.00005C0.777832 10.4223 3.57783 13.2223 7.00005 13.2223C10.4223 13.2223 13.2223 10.4223 13.2223 7.00005C13.2223 3.57783 10.4223 0.777832 7.00005 0.777832ZM7.00005 12.4445C3.96672 12.4445 1.55561 10.0334 1.55561 7.00005C1.55561 3.96672 3.96672 1.55561 7.00005 1.55561C10.0334 1.55561 12.4445 3.96672 12.4445 7.00005C12.4445 10.0334 10.0334 12.4445 7.00005 12.4445Z" fill="#ED6A0C"/>
<path id="Vector_2" d="M6.99995 9.33355C6.76661 9.33355 6.61106 9.41133 6.4555 9.56688C6.29995 9.72244 6.22217 9.87799 6.22217 10.1113C6.22217 10.3447 6.29995 10.5002 6.4555 10.6558C6.61106 10.8113 6.76661 10.8891 6.99995 10.8891C7.23328 10.8891 7.38883 10.8113 7.54439 10.6558C7.69995 10.5002 7.77772 10.3447 7.77772 10.1113C7.77772 9.87799 7.69995 9.72244 7.54439 9.56688C7.38883 9.41133 7.23328 9.33355 6.99995 9.33355ZM6.29995 3.11133L6.53328 8.71133H7.38883L7.69995 3.11133H6.29995Z" fill="#ED6A0C"/>
</g>
<defs>
<clipPath id="clip0_24_2003">
<rect width="14" height="14" fill="white"/>
</clipPath>
</defs>
</svg>
