<svg xmlns="http://www.w3.org/2000/svg" width="16" height="16" viewBox="0 0 16 16"><defs><style>.a{fill:#fff;stroke:#707070;opacity:0;}.b{fill:#b3b3b3;}.c{stroke:none;}.d{fill:none;}</style></defs><g transform="translate(-726 -348)"><g class="a" transform="translate(726 348)"><rect class="c" width="16" height="16"/><rect class="d" x="0.5" y="0.5" width="15" height="15"/></g><path class="b" d="M6406.81,10925.169l-.271-.108-5.1-1.869a2.351,2.351,0,1,1-3-3.251v-1.883a2.344,2.344,0,1,1,3.02-3.22l5.3-1.538a2.355,2.355,0,1,1,3.239,2.2v6.992a2.343,2.343,0,1,1-3.185,2.676Zm1.413-.511a.882.882,0,0,0,.886.878.886.886,0,0,0,.883-.878.885.885,0,0,0-1.77,0Zm-6.59-8.159a2.323,2.323,0,0,1-1.5,1.612v1.775a2.352,2.352,0,0,1,1.521,1.672l5.337,2.089a2.369,2.369,0,0,1,1.313-1.183v-6.935a2.361,2.361,0,0,1-.955-.644Zm-3.162,5.6a.882.882,0,0,0,.883.878.892.892,0,0,0,.626-.26.848.848,0,0,0,.257-.618.883.883,0,0,0-1.767,0Zm0-6.2a.88.88,0,0,0,.883.876.89.89,0,0,0,.626-.255.858.858,0,0,0,.257-.619.883.883,0,0,0-1.767,0Zm9.752-2.565a.887.887,0,0,0,1.51.619.871.871,0,0,0,.259-.619.885.885,0,0,0-1.77,0Z" transform="translate(-5670.232 -10563)"/></g></svg>