<svg xmlns="http://www.w3.org/2000/svg" width="12" height="15"><path d="M0 3.205v-.381c0-.634.671-.833 1.5-.833h1.468L3.146.734A.887.887 0 014 0h4c.413 0 .796.33.853.734l.178 1.257H10.5c.828 0 1.5.199 1.5.833v.381H0zM7.97.748H4.03l-.176 1.243h4.291L7.97.748zM1.25 4.13h9.5c.55 0 .959.443.909.984l-.819 8.902c-.049.541-.541.984-1.091.984H2.25c-.55 0-1.041-.443-1.091-.984L.34 5.114a.893.893 0 01.91-.984zM8 13.969h1.923l.641-8.693H8v8.693zm-3.302 0h2.591V5.276H4.698v8.693zm-2.64 0H4V5.276H1.41l.648 8.693z"/></svg>
