<svg xmlns="http://www.w3.org/2000/svg" width="16" height="15.999" viewBox="0 0 16 15.999"><path class="a" d="M3829.146,770.636a4.428,4.428,0,1,1,4.428,4.364A4.4,4.4,0,0,1,3829.146,770.636Zm1.09,0a3.337,3.337,0,1,0,3.338-3.285A3.315,3.315,0,0,0,3830.236,770.636Zm-6.473,2.135a1.753,1.753,0,0,1-1.763-1.738V760.739a1.752,1.752,0,0,1,1.763-1.738h8.724a1.751,1.751,0,0,1,1.76,1.738v4.074a.6.6,0,0,1-1.194,0v-4.074a.562.562,0,0,0-.567-.556h-8.724a.562.562,0,0,0-.566.556v10.293a.562.562,0,0,0,.566.557h3.482a.591.591,0,1,1,0,1.181Zm8.656-2.135a1.155,1.155,0,1,1,1.155,1.14A1.149,1.149,0,0,1,3832.418,770.636Zm-8.656-2.155a1.485,1.485,0,0,1,1.469-1.5,1.445,1.445,0,0,1,.938.346,2.55,2.55,0,0,0,1.259-2.241,3.058,3.058,0,0,1,1.595-2.635,3.313,3.313,0,0,1,.551-.228,1.471,1.471,0,1,1,1.447,1.747,1.461,1.461,0,0,1-1.185-.616,2.123,2.123,0,0,0-.285.129,1.962,1.962,0,0,0-.956,1.692,3.889,3.889,0,0,1-1.279,2.764,3.206,3.206,0,0,1-.621.42c0,.042.006.081.006.12a1.469,1.469,0,1,1-2.937,0Zm1.205,0a.262.262,0,1,0,.263-.272A.268.268,0,0,0,3824.967,768.481Zm5.79-6.009a.262.262,0,1,0,.262-.273A.267.267,0,0,0,3830.758,762.472Z" transform="translate(-3822 -759)"/></svg>