<svg xmlns="http://www.w3.org/2000/svg" width="32" height="32" viewBox="0 0 32 32"><defs><style>.a{fill:#fff;stroke:#707070;opacity:0;}.c{stroke:none;}.d{fill:none;}</style></defs><g transform="translate(-562 -240)"><g class="a" transform="translate(562 240)"><rect class="c" width="32" height="32"/><rect class="d" x="0.5" y="0.5" width="31" height="31"/></g><path class="b" d="M78,192a7.6,7.6,0,0,1,7.36,7.516l.008.34a7.087,7.087,0,0,1,0,14.144H70.632a7.084,7.084,0,0,1,0-14.14l.006-.34A7.6,7.6,0,0,1,78,192Zm0,8.452a.714.714,0,0,0-.52.232l-3.13,3.332a.822.822,0,0,0-.19.76.764.764,0,0,0,.52.554.706.706,0,0,0,.712-.2l1.87-1.992v6.15a.738.738,0,1,0,1.472,0v-6.154l1.87,2a.7.7,0,0,0,.716.212.764.764,0,0,0,.526-.56.82.82,0,0,0-.2-.764l-3.124-3.332a.714.714,0,0,0-.52-.232Z" transform="translate(500 53)"/></g></svg>
